%TF.GenerationSoftware,KiCad,Pcbnew,7.0.9*%
%TF.CreationDate,2024-01-09T19:27:16+00:00*%
%TF.ProjectId,OPA990 Breakout,4f504139-3930-4204-9272-65616b6f7574,V24.01.0.1*%
%TF.SameCoordinates,PX8c7ecc0PY5c0c740*%
%TF.FileFunction,Drillmap*%
%TF.FilePolarity,Positive*%
%FSLAX45Y45*%
G04 Gerber Fmt 4.5, Leading zero omitted, Abs format (unit mm)*
G04 Created by KiCad (PCBNEW 7.0.9) date 2024-01-09 19:27:16*
%MOMM*%
%LPD*%
G01*
G04 APERTURE LIST*
%ADD10C,0.100000*%
%ADD11C,0.200000*%
G04 APERTURE END LIST*
D10*
X1079500Y635000D02*
X-825500Y635000D01*
X-952500Y508000D02*
X-952500Y-508000D01*
X1079500Y-635000D02*
G75*
G03*
X1206500Y-508000I0J127000D01*
G01*
X1206500Y508000D02*
G75*
G03*
X1079500Y635000I-127000J0D01*
G01*
X-952500Y-508000D02*
G75*
G03*
X-825500Y-635000I127000J0D01*
G01*
X1206500Y508000D02*
X1206500Y-508000D01*
X1079500Y-635000D02*
X-825500Y-635000D01*
X-825500Y635000D02*
G75*
G03*
X-952500Y508000I0J-127000D01*
G01*
D11*
D10*
X-535700Y345200D02*
X-505700Y315200D01*
X-505700Y345200D02*
X-535700Y315200D01*
X-523000Y-366000D02*
X-493000Y-396000D01*
X-493000Y-366000D02*
X-523000Y-396000D01*
X-396000Y-10400D02*
X-366000Y-40400D01*
X-366000Y-10400D02*
X-396000Y-40400D01*
X-205500Y561100D02*
X-175500Y531100D01*
X-175500Y561100D02*
X-205500Y531100D01*
X-15000Y561100D02*
X15000Y531100D01*
X15000Y561100D02*
X-15000Y531100D01*
X73900Y319800D02*
X103900Y289800D01*
X103900Y319800D02*
X73900Y289800D01*
X124700Y-518400D02*
X154700Y-548400D01*
X154700Y-518400D02*
X124700Y-548400D01*
X327900Y-112000D02*
X357900Y-142000D01*
X357900Y-112000D02*
X327900Y-142000D01*
X327900Y-264400D02*
X357900Y-294400D01*
X357900Y-264400D02*
X327900Y-294400D01*
X340600Y116600D02*
X370600Y86600D01*
X370600Y116600D02*
X340600Y86600D01*
X442200Y472200D02*
X472200Y442200D01*
X472200Y472200D02*
X442200Y442200D01*
X454900Y-239000D02*
X484900Y-269000D01*
X484900Y-239000D02*
X454900Y-269000D01*
X531100Y-73900D02*
X561100Y-103900D01*
X561100Y-73900D02*
X531100Y-103900D01*
X747000Y-493000D02*
X777000Y-523000D01*
X777000Y-493000D02*
X747000Y-523000D01*
X810500Y142000D02*
X840500Y112000D01*
X840500Y142000D02*
X810500Y112000D01*
X-712000Y254000D02*
G75*
G03*
X-712000Y254000I-50000J0D01*
G01*
X-712000Y0D02*
G75*
G03*
X-712000Y0I-50000J0D01*
G01*
X-712000Y-254000D02*
G75*
G03*
X-712000Y-254000I-50000J0D01*
G01*
X1066000Y254000D02*
G75*
G03*
X1066000Y254000I-50000J0D01*
G01*
X1066000Y0D02*
G75*
G03*
X1066000Y0I-50000J0D01*
G01*
X1066000Y-254000D02*
G75*
G03*
X1066000Y-254000I-50000J0D01*
G01*
D11*
X-696723Y-951484D02*
X-696723Y-751484D01*
X-696723Y-751484D02*
X-649104Y-751484D01*
X-649104Y-751484D02*
X-620533Y-761008D01*
X-620533Y-761008D02*
X-601485Y-780055D01*
X-601485Y-780055D02*
X-591961Y-799103D01*
X-591961Y-799103D02*
X-582438Y-837198D01*
X-582438Y-837198D02*
X-582438Y-865769D01*
X-582438Y-865769D02*
X-591961Y-903865D01*
X-591961Y-903865D02*
X-601485Y-922912D01*
X-601485Y-922912D02*
X-620533Y-941960D01*
X-620533Y-941960D02*
X-649104Y-951484D01*
X-649104Y-951484D02*
X-696723Y-951484D01*
X-496723Y-951484D02*
X-496723Y-818150D01*
X-496723Y-856246D02*
X-487199Y-837198D01*
X-487199Y-837198D02*
X-477676Y-827674D01*
X-477676Y-827674D02*
X-458628Y-818150D01*
X-458628Y-818150D02*
X-439580Y-818150D01*
X-372914Y-951484D02*
X-372914Y-818150D01*
X-372914Y-751484D02*
X-382437Y-761008D01*
X-382437Y-761008D02*
X-372914Y-770531D01*
X-372914Y-770531D02*
X-363390Y-761008D01*
X-363390Y-761008D02*
X-372914Y-751484D01*
X-372914Y-751484D02*
X-372914Y-770531D01*
X-249104Y-951484D02*
X-268152Y-941960D01*
X-268152Y-941960D02*
X-277676Y-922912D01*
X-277676Y-922912D02*
X-277676Y-751484D01*
X-144342Y-951484D02*
X-163390Y-941960D01*
X-163390Y-941960D02*
X-172914Y-922912D01*
X-172914Y-922912D02*
X-172914Y-751484D01*
X84229Y-951484D02*
X84229Y-751484D01*
X84229Y-751484D02*
X150896Y-894341D01*
X150896Y-894341D02*
X217562Y-751484D01*
X217562Y-751484D02*
X217562Y-951484D01*
X398515Y-951484D02*
X398515Y-846722D01*
X398515Y-846722D02*
X388991Y-827674D01*
X388991Y-827674D02*
X369943Y-818150D01*
X369943Y-818150D02*
X331848Y-818150D01*
X331848Y-818150D02*
X312801Y-827674D01*
X398515Y-941960D02*
X379467Y-951484D01*
X379467Y-951484D02*
X331848Y-951484D01*
X331848Y-951484D02*
X312801Y-941960D01*
X312801Y-941960D02*
X303277Y-922912D01*
X303277Y-922912D02*
X303277Y-903865D01*
X303277Y-903865D02*
X312801Y-884817D01*
X312801Y-884817D02*
X331848Y-875293D01*
X331848Y-875293D02*
X379467Y-875293D01*
X379467Y-875293D02*
X398515Y-865769D01*
X493753Y-818150D02*
X493753Y-1018150D01*
X493753Y-827674D02*
X512801Y-818150D01*
X512801Y-818150D02*
X550896Y-818150D01*
X550896Y-818150D02*
X569944Y-827674D01*
X569944Y-827674D02*
X579467Y-837198D01*
X579467Y-837198D02*
X588991Y-856246D01*
X588991Y-856246D02*
X588991Y-913388D01*
X588991Y-913388D02*
X579467Y-932436D01*
X579467Y-932436D02*
X569944Y-941960D01*
X569944Y-941960D02*
X550896Y-951484D01*
X550896Y-951484D02*
X512801Y-951484D01*
X512801Y-951484D02*
X493753Y-941960D01*
X674705Y-932436D02*
X684229Y-941960D01*
X684229Y-941960D02*
X674705Y-951484D01*
X674705Y-951484D02*
X665182Y-941960D01*
X665182Y-941960D02*
X674705Y-932436D01*
X674705Y-932436D02*
X674705Y-951484D01*
X674705Y-827674D02*
X684229Y-837198D01*
X684229Y-837198D02*
X674705Y-846722D01*
X674705Y-846722D02*
X665182Y-837198D01*
X665182Y-837198D02*
X674705Y-827674D01*
X674705Y-827674D02*
X674705Y-846722D01*
D10*
X-987500Y-1265000D02*
X-957500Y-1295000D01*
X-957500Y-1265000D02*
X-987500Y-1295000D01*
D11*
X-658628Y-1171484D02*
X-639580Y-1171484D01*
X-639580Y-1171484D02*
X-620533Y-1181008D01*
X-620533Y-1181008D02*
X-611009Y-1190531D01*
X-611009Y-1190531D02*
X-601485Y-1209579D01*
X-601485Y-1209579D02*
X-591961Y-1247674D01*
X-591961Y-1247674D02*
X-591961Y-1295293D01*
X-591961Y-1295293D02*
X-601485Y-1333389D01*
X-601485Y-1333389D02*
X-611009Y-1352436D01*
X-611009Y-1352436D02*
X-620533Y-1361960D01*
X-620533Y-1361960D02*
X-639580Y-1371484D01*
X-639580Y-1371484D02*
X-658628Y-1371484D01*
X-658628Y-1371484D02*
X-677676Y-1361960D01*
X-677676Y-1361960D02*
X-687199Y-1352436D01*
X-687199Y-1352436D02*
X-696723Y-1333389D01*
X-696723Y-1333389D02*
X-706247Y-1295293D01*
X-706247Y-1295293D02*
X-706247Y-1247674D01*
X-706247Y-1247674D02*
X-696723Y-1209579D01*
X-696723Y-1209579D02*
X-687199Y-1190531D01*
X-687199Y-1190531D02*
X-677676Y-1181008D01*
X-677676Y-1181008D02*
X-658628Y-1171484D01*
X-506247Y-1352436D02*
X-496723Y-1361960D01*
X-496723Y-1361960D02*
X-506247Y-1371484D01*
X-506247Y-1371484D02*
X-515771Y-1361960D01*
X-515771Y-1361960D02*
X-506247Y-1352436D01*
X-506247Y-1352436D02*
X-506247Y-1371484D01*
X-430056Y-1171484D02*
X-306247Y-1171484D01*
X-306247Y-1171484D02*
X-372914Y-1247674D01*
X-372914Y-1247674D02*
X-344342Y-1247674D01*
X-344342Y-1247674D02*
X-325295Y-1257198D01*
X-325295Y-1257198D02*
X-315771Y-1266722D01*
X-315771Y-1266722D02*
X-306247Y-1285770D01*
X-306247Y-1285770D02*
X-306247Y-1333389D01*
X-306247Y-1333389D02*
X-315771Y-1352436D01*
X-315771Y-1352436D02*
X-325295Y-1361960D01*
X-325295Y-1361960D02*
X-344342Y-1371484D01*
X-344342Y-1371484D02*
X-401485Y-1371484D01*
X-401485Y-1371484D02*
X-420533Y-1361960D01*
X-420533Y-1361960D02*
X-430056Y-1352436D01*
X-182437Y-1171484D02*
X-163390Y-1171484D01*
X-163390Y-1171484D02*
X-144342Y-1181008D01*
X-144342Y-1181008D02*
X-134818Y-1190531D01*
X-134818Y-1190531D02*
X-125295Y-1209579D01*
X-125295Y-1209579D02*
X-115771Y-1247674D01*
X-115771Y-1247674D02*
X-115771Y-1295293D01*
X-115771Y-1295293D02*
X-125295Y-1333389D01*
X-125295Y-1333389D02*
X-134818Y-1352436D01*
X-134818Y-1352436D02*
X-144342Y-1361960D01*
X-144342Y-1361960D02*
X-163390Y-1371484D01*
X-163390Y-1371484D02*
X-182437Y-1371484D01*
X-182437Y-1371484D02*
X-201485Y-1361960D01*
X-201485Y-1361960D02*
X-211009Y-1352436D01*
X-211009Y-1352436D02*
X-220533Y-1333389D01*
X-220533Y-1333389D02*
X-230056Y-1295293D01*
X-230056Y-1295293D02*
X-230056Y-1247674D01*
X-230056Y-1247674D02*
X-220533Y-1209579D01*
X-220533Y-1209579D02*
X-211009Y-1190531D01*
X-211009Y-1190531D02*
X-201485Y-1181008D01*
X-201485Y-1181008D02*
X-182437Y-1171484D01*
X8039Y-1171484D02*
X27086Y-1171484D01*
X27086Y-1171484D02*
X46134Y-1181008D01*
X46134Y-1181008D02*
X55658Y-1190531D01*
X55658Y-1190531D02*
X65182Y-1209579D01*
X65182Y-1209579D02*
X74705Y-1247674D01*
X74705Y-1247674D02*
X74705Y-1295293D01*
X74705Y-1295293D02*
X65182Y-1333389D01*
X65182Y-1333389D02*
X55658Y-1352436D01*
X55658Y-1352436D02*
X46134Y-1361960D01*
X46134Y-1361960D02*
X27086Y-1371484D01*
X27086Y-1371484D02*
X8039Y-1371484D01*
X8039Y-1371484D02*
X-11009Y-1361960D01*
X-11009Y-1361960D02*
X-20533Y-1352436D01*
X-20533Y-1352436D02*
X-30056Y-1333389D01*
X-30056Y-1333389D02*
X-39580Y-1295293D01*
X-39580Y-1295293D02*
X-39580Y-1247674D01*
X-39580Y-1247674D02*
X-30056Y-1209579D01*
X-30056Y-1209579D02*
X-20533Y-1190531D01*
X-20533Y-1190531D02*
X-11009Y-1181008D01*
X-11009Y-1181008D02*
X8039Y-1171484D01*
X160420Y-1371484D02*
X160420Y-1238150D01*
X160420Y-1257198D02*
X169944Y-1247674D01*
X169944Y-1247674D02*
X188991Y-1238150D01*
X188991Y-1238150D02*
X217563Y-1238150D01*
X217563Y-1238150D02*
X236610Y-1247674D01*
X236610Y-1247674D02*
X246134Y-1266722D01*
X246134Y-1266722D02*
X246134Y-1371484D01*
X246134Y-1266722D02*
X255658Y-1247674D01*
X255658Y-1247674D02*
X274705Y-1238150D01*
X274705Y-1238150D02*
X303277Y-1238150D01*
X303277Y-1238150D02*
X322325Y-1247674D01*
X322325Y-1247674D02*
X331848Y-1266722D01*
X331848Y-1266722D02*
X331848Y-1371484D01*
X427086Y-1371484D02*
X427086Y-1238150D01*
X427086Y-1257198D02*
X436610Y-1247674D01*
X436610Y-1247674D02*
X455658Y-1238150D01*
X455658Y-1238150D02*
X484229Y-1238150D01*
X484229Y-1238150D02*
X503277Y-1247674D01*
X503277Y-1247674D02*
X512801Y-1266722D01*
X512801Y-1266722D02*
X512801Y-1371484D01*
X512801Y-1266722D02*
X522324Y-1247674D01*
X522324Y-1247674D02*
X541372Y-1238150D01*
X541372Y-1238150D02*
X569944Y-1238150D01*
X569944Y-1238150D02*
X588991Y-1247674D01*
X588991Y-1247674D02*
X598515Y-1266722D01*
X598515Y-1266722D02*
X598515Y-1371484D01*
X988991Y-1161960D02*
X817563Y-1419103D01*
X1246134Y-1171484D02*
X1265182Y-1171484D01*
X1265182Y-1171484D02*
X1284229Y-1181008D01*
X1284229Y-1181008D02*
X1293753Y-1190531D01*
X1293753Y-1190531D02*
X1303277Y-1209579D01*
X1303277Y-1209579D02*
X1312801Y-1247674D01*
X1312801Y-1247674D02*
X1312801Y-1295293D01*
X1312801Y-1295293D02*
X1303277Y-1333389D01*
X1303277Y-1333389D02*
X1293753Y-1352436D01*
X1293753Y-1352436D02*
X1284229Y-1361960D01*
X1284229Y-1361960D02*
X1265182Y-1371484D01*
X1265182Y-1371484D02*
X1246134Y-1371484D01*
X1246134Y-1371484D02*
X1227087Y-1361960D01*
X1227087Y-1361960D02*
X1217563Y-1352436D01*
X1217563Y-1352436D02*
X1208039Y-1333389D01*
X1208039Y-1333389D02*
X1198515Y-1295293D01*
X1198515Y-1295293D02*
X1198515Y-1247674D01*
X1198515Y-1247674D02*
X1208039Y-1209579D01*
X1208039Y-1209579D02*
X1217563Y-1190531D01*
X1217563Y-1190531D02*
X1227087Y-1181008D01*
X1227087Y-1181008D02*
X1246134Y-1171484D01*
X1398515Y-1352436D02*
X1408039Y-1361960D01*
X1408039Y-1361960D02*
X1398515Y-1371484D01*
X1398515Y-1371484D02*
X1388991Y-1361960D01*
X1388991Y-1361960D02*
X1398515Y-1352436D01*
X1398515Y-1352436D02*
X1398515Y-1371484D01*
X1531848Y-1171484D02*
X1550896Y-1171484D01*
X1550896Y-1171484D02*
X1569944Y-1181008D01*
X1569944Y-1181008D02*
X1579467Y-1190531D01*
X1579467Y-1190531D02*
X1588991Y-1209579D01*
X1588991Y-1209579D02*
X1598515Y-1247674D01*
X1598515Y-1247674D02*
X1598515Y-1295293D01*
X1598515Y-1295293D02*
X1588991Y-1333389D01*
X1588991Y-1333389D02*
X1579467Y-1352436D01*
X1579467Y-1352436D02*
X1569944Y-1361960D01*
X1569944Y-1361960D02*
X1550896Y-1371484D01*
X1550896Y-1371484D02*
X1531848Y-1371484D01*
X1531848Y-1371484D02*
X1512801Y-1361960D01*
X1512801Y-1361960D02*
X1503277Y-1352436D01*
X1503277Y-1352436D02*
X1493753Y-1333389D01*
X1493753Y-1333389D02*
X1484229Y-1295293D01*
X1484229Y-1295293D02*
X1484229Y-1247674D01*
X1484229Y-1247674D02*
X1493753Y-1209579D01*
X1493753Y-1209579D02*
X1503277Y-1190531D01*
X1503277Y-1190531D02*
X1512801Y-1181008D01*
X1512801Y-1181008D02*
X1531848Y-1171484D01*
X1788991Y-1371484D02*
X1674706Y-1371484D01*
X1731848Y-1371484D02*
X1731848Y-1171484D01*
X1731848Y-1171484D02*
X1712801Y-1200055D01*
X1712801Y-1200055D02*
X1693753Y-1219103D01*
X1693753Y-1219103D02*
X1674706Y-1228627D01*
X1979467Y-1371484D02*
X1865182Y-1371484D01*
X1922325Y-1371484D02*
X1922325Y-1171484D01*
X1922325Y-1171484D02*
X1903277Y-1200055D01*
X1903277Y-1200055D02*
X1884229Y-1219103D01*
X1884229Y-1219103D02*
X1865182Y-1228627D01*
X2093753Y-1257198D02*
X2074706Y-1247674D01*
X2074706Y-1247674D02*
X2065182Y-1238150D01*
X2065182Y-1238150D02*
X2055658Y-1219103D01*
X2055658Y-1219103D02*
X2055658Y-1209579D01*
X2055658Y-1209579D02*
X2065182Y-1190531D01*
X2065182Y-1190531D02*
X2074706Y-1181008D01*
X2074706Y-1181008D02*
X2093753Y-1171484D01*
X2093753Y-1171484D02*
X2131849Y-1171484D01*
X2131849Y-1171484D02*
X2150896Y-1181008D01*
X2150896Y-1181008D02*
X2160420Y-1190531D01*
X2160420Y-1190531D02*
X2169944Y-1209579D01*
X2169944Y-1209579D02*
X2169944Y-1219103D01*
X2169944Y-1219103D02*
X2160420Y-1238150D01*
X2160420Y-1238150D02*
X2150896Y-1247674D01*
X2150896Y-1247674D02*
X2131849Y-1257198D01*
X2131849Y-1257198D02*
X2093753Y-1257198D01*
X2093753Y-1257198D02*
X2074706Y-1266722D01*
X2074706Y-1266722D02*
X2065182Y-1276246D01*
X2065182Y-1276246D02*
X2055658Y-1295293D01*
X2055658Y-1295293D02*
X2055658Y-1333389D01*
X2055658Y-1333389D02*
X2065182Y-1352436D01*
X2065182Y-1352436D02*
X2074706Y-1361960D01*
X2074706Y-1361960D02*
X2093753Y-1371484D01*
X2093753Y-1371484D02*
X2131849Y-1371484D01*
X2131849Y-1371484D02*
X2150896Y-1361960D01*
X2150896Y-1361960D02*
X2160420Y-1352436D01*
X2160420Y-1352436D02*
X2169944Y-1333389D01*
X2169944Y-1333389D02*
X2169944Y-1295293D01*
X2169944Y-1295293D02*
X2160420Y-1276246D01*
X2160420Y-1276246D02*
X2150896Y-1266722D01*
X2150896Y-1266722D02*
X2131849Y-1257198D01*
X2246134Y-1171484D02*
X2246134Y-1209579D01*
X2322325Y-1171484D02*
X2322325Y-1209579D01*
X2617563Y-1447674D02*
X2608039Y-1438150D01*
X2608039Y-1438150D02*
X2588991Y-1409579D01*
X2588991Y-1409579D02*
X2579468Y-1390531D01*
X2579468Y-1390531D02*
X2569944Y-1361960D01*
X2569944Y-1361960D02*
X2560420Y-1314341D01*
X2560420Y-1314341D02*
X2560420Y-1276246D01*
X2560420Y-1276246D02*
X2569944Y-1228627D01*
X2569944Y-1228627D02*
X2579468Y-1200055D01*
X2579468Y-1200055D02*
X2588991Y-1181008D01*
X2588991Y-1181008D02*
X2608039Y-1152436D01*
X2608039Y-1152436D02*
X2617563Y-1142912D01*
X2798515Y-1371484D02*
X2684230Y-1371484D01*
X2741372Y-1371484D02*
X2741372Y-1171484D01*
X2741372Y-1171484D02*
X2722325Y-1200055D01*
X2722325Y-1200055D02*
X2703277Y-1219103D01*
X2703277Y-1219103D02*
X2684230Y-1228627D01*
X2979468Y-1171484D02*
X2884229Y-1171484D01*
X2884229Y-1171484D02*
X2874706Y-1266722D01*
X2874706Y-1266722D02*
X2884229Y-1257198D01*
X2884229Y-1257198D02*
X2903277Y-1247674D01*
X2903277Y-1247674D02*
X2950896Y-1247674D01*
X2950896Y-1247674D02*
X2969944Y-1257198D01*
X2969944Y-1257198D02*
X2979468Y-1266722D01*
X2979468Y-1266722D02*
X2988991Y-1285770D01*
X2988991Y-1285770D02*
X2988991Y-1333389D01*
X2988991Y-1333389D02*
X2979468Y-1352436D01*
X2979468Y-1352436D02*
X2969944Y-1361960D01*
X2969944Y-1361960D02*
X2950896Y-1371484D01*
X2950896Y-1371484D02*
X2903277Y-1371484D01*
X2903277Y-1371484D02*
X2884229Y-1361960D01*
X2884229Y-1361960D02*
X2874706Y-1352436D01*
X3227087Y-1371484D02*
X3227087Y-1171484D01*
X3312801Y-1371484D02*
X3312801Y-1266722D01*
X3312801Y-1266722D02*
X3303277Y-1247674D01*
X3303277Y-1247674D02*
X3284230Y-1238150D01*
X3284230Y-1238150D02*
X3255658Y-1238150D01*
X3255658Y-1238150D02*
X3236610Y-1247674D01*
X3236610Y-1247674D02*
X3227087Y-1257198D01*
X3436610Y-1371484D02*
X3417563Y-1361960D01*
X3417563Y-1361960D02*
X3408039Y-1352436D01*
X3408039Y-1352436D02*
X3398515Y-1333389D01*
X3398515Y-1333389D02*
X3398515Y-1276246D01*
X3398515Y-1276246D02*
X3408039Y-1257198D01*
X3408039Y-1257198D02*
X3417563Y-1247674D01*
X3417563Y-1247674D02*
X3436610Y-1238150D01*
X3436610Y-1238150D02*
X3465182Y-1238150D01*
X3465182Y-1238150D02*
X3484230Y-1247674D01*
X3484230Y-1247674D02*
X3493753Y-1257198D01*
X3493753Y-1257198D02*
X3503277Y-1276246D01*
X3503277Y-1276246D02*
X3503277Y-1333389D01*
X3503277Y-1333389D02*
X3493753Y-1352436D01*
X3493753Y-1352436D02*
X3484230Y-1361960D01*
X3484230Y-1361960D02*
X3465182Y-1371484D01*
X3465182Y-1371484D02*
X3436610Y-1371484D01*
X3617563Y-1371484D02*
X3598515Y-1361960D01*
X3598515Y-1361960D02*
X3588991Y-1342912D01*
X3588991Y-1342912D02*
X3588991Y-1171484D01*
X3769944Y-1361960D02*
X3750896Y-1371484D01*
X3750896Y-1371484D02*
X3712801Y-1371484D01*
X3712801Y-1371484D02*
X3693753Y-1361960D01*
X3693753Y-1361960D02*
X3684230Y-1342912D01*
X3684230Y-1342912D02*
X3684230Y-1266722D01*
X3684230Y-1266722D02*
X3693753Y-1247674D01*
X3693753Y-1247674D02*
X3712801Y-1238150D01*
X3712801Y-1238150D02*
X3750896Y-1238150D01*
X3750896Y-1238150D02*
X3769944Y-1247674D01*
X3769944Y-1247674D02*
X3779468Y-1266722D01*
X3779468Y-1266722D02*
X3779468Y-1285770D01*
X3779468Y-1285770D02*
X3684230Y-1304817D01*
X3855658Y-1361960D02*
X3874706Y-1371484D01*
X3874706Y-1371484D02*
X3912801Y-1371484D01*
X3912801Y-1371484D02*
X3931849Y-1361960D01*
X3931849Y-1361960D02*
X3941372Y-1342912D01*
X3941372Y-1342912D02*
X3941372Y-1333389D01*
X3941372Y-1333389D02*
X3931849Y-1314341D01*
X3931849Y-1314341D02*
X3912801Y-1304817D01*
X3912801Y-1304817D02*
X3884230Y-1304817D01*
X3884230Y-1304817D02*
X3865182Y-1295293D01*
X3865182Y-1295293D02*
X3855658Y-1276246D01*
X3855658Y-1276246D02*
X3855658Y-1266722D01*
X3855658Y-1266722D02*
X3865182Y-1247674D01*
X3865182Y-1247674D02*
X3884230Y-1238150D01*
X3884230Y-1238150D02*
X3912801Y-1238150D01*
X3912801Y-1238150D02*
X3931849Y-1247674D01*
X4008039Y-1447674D02*
X4017563Y-1438150D01*
X4017563Y-1438150D02*
X4036611Y-1409579D01*
X4036611Y-1409579D02*
X4046134Y-1390531D01*
X4046134Y-1390531D02*
X4055658Y-1361960D01*
X4055658Y-1361960D02*
X4065182Y-1314341D01*
X4065182Y-1314341D02*
X4065182Y-1276246D01*
X4065182Y-1276246D02*
X4055658Y-1228627D01*
X4055658Y-1228627D02*
X4046134Y-1200055D01*
X4046134Y-1200055D02*
X4036611Y-1181008D01*
X4036611Y-1181008D02*
X4017563Y-1152436D01*
X4017563Y-1152436D02*
X4008039Y-1142912D01*
D10*
X-957500Y-1544000D02*
G75*
G03*
X-957500Y-1544000I-50000J0D01*
G01*
D11*
X-591961Y-1635484D02*
X-706247Y-1635484D01*
X-649104Y-1635484D02*
X-649104Y-1435484D01*
X-649104Y-1435484D02*
X-668152Y-1464055D01*
X-668152Y-1464055D02*
X-687199Y-1483103D01*
X-687199Y-1483103D02*
X-706247Y-1492627D01*
X-506247Y-1616436D02*
X-496723Y-1625960D01*
X-496723Y-1625960D02*
X-506247Y-1635484D01*
X-506247Y-1635484D02*
X-515771Y-1625960D01*
X-515771Y-1625960D02*
X-506247Y-1616436D01*
X-506247Y-1616436D02*
X-506247Y-1635484D01*
X-372914Y-1435484D02*
X-353866Y-1435484D01*
X-353866Y-1435484D02*
X-334818Y-1445008D01*
X-334818Y-1445008D02*
X-325295Y-1454531D01*
X-325295Y-1454531D02*
X-315771Y-1473579D01*
X-315771Y-1473579D02*
X-306247Y-1511674D01*
X-306247Y-1511674D02*
X-306247Y-1559293D01*
X-306247Y-1559293D02*
X-315771Y-1597388D01*
X-315771Y-1597388D02*
X-325295Y-1616436D01*
X-325295Y-1616436D02*
X-334818Y-1625960D01*
X-334818Y-1625960D02*
X-353866Y-1635484D01*
X-353866Y-1635484D02*
X-372914Y-1635484D01*
X-372914Y-1635484D02*
X-391961Y-1625960D01*
X-391961Y-1625960D02*
X-401485Y-1616436D01*
X-401485Y-1616436D02*
X-411009Y-1597388D01*
X-411009Y-1597388D02*
X-420533Y-1559293D01*
X-420533Y-1559293D02*
X-420533Y-1511674D01*
X-420533Y-1511674D02*
X-411009Y-1473579D01*
X-411009Y-1473579D02*
X-401485Y-1454531D01*
X-401485Y-1454531D02*
X-391961Y-1445008D01*
X-391961Y-1445008D02*
X-372914Y-1435484D01*
X-182437Y-1435484D02*
X-163390Y-1435484D01*
X-163390Y-1435484D02*
X-144342Y-1445008D01*
X-144342Y-1445008D02*
X-134818Y-1454531D01*
X-134818Y-1454531D02*
X-125295Y-1473579D01*
X-125295Y-1473579D02*
X-115771Y-1511674D01*
X-115771Y-1511674D02*
X-115771Y-1559293D01*
X-115771Y-1559293D02*
X-125295Y-1597388D01*
X-125295Y-1597388D02*
X-134818Y-1616436D01*
X-134818Y-1616436D02*
X-144342Y-1625960D01*
X-144342Y-1625960D02*
X-163390Y-1635484D01*
X-163390Y-1635484D02*
X-182437Y-1635484D01*
X-182437Y-1635484D02*
X-201485Y-1625960D01*
X-201485Y-1625960D02*
X-211009Y-1616436D01*
X-211009Y-1616436D02*
X-220533Y-1597388D01*
X-220533Y-1597388D02*
X-230056Y-1559293D01*
X-230056Y-1559293D02*
X-230056Y-1511674D01*
X-230056Y-1511674D02*
X-220533Y-1473579D01*
X-220533Y-1473579D02*
X-211009Y-1454531D01*
X-211009Y-1454531D02*
X-201485Y-1445008D01*
X-201485Y-1445008D02*
X-182437Y-1435484D01*
X8039Y-1435484D02*
X27086Y-1435484D01*
X27086Y-1435484D02*
X46134Y-1445008D01*
X46134Y-1445008D02*
X55658Y-1454531D01*
X55658Y-1454531D02*
X65182Y-1473579D01*
X65182Y-1473579D02*
X74705Y-1511674D01*
X74705Y-1511674D02*
X74705Y-1559293D01*
X74705Y-1559293D02*
X65182Y-1597388D01*
X65182Y-1597388D02*
X55658Y-1616436D01*
X55658Y-1616436D02*
X46134Y-1625960D01*
X46134Y-1625960D02*
X27086Y-1635484D01*
X27086Y-1635484D02*
X8039Y-1635484D01*
X8039Y-1635484D02*
X-11009Y-1625960D01*
X-11009Y-1625960D02*
X-20533Y-1616436D01*
X-20533Y-1616436D02*
X-30056Y-1597388D01*
X-30056Y-1597388D02*
X-39580Y-1559293D01*
X-39580Y-1559293D02*
X-39580Y-1511674D01*
X-39580Y-1511674D02*
X-30056Y-1473579D01*
X-30056Y-1473579D02*
X-20533Y-1454531D01*
X-20533Y-1454531D02*
X-11009Y-1445008D01*
X-11009Y-1445008D02*
X8039Y-1435484D01*
X160420Y-1635484D02*
X160420Y-1502150D01*
X160420Y-1521198D02*
X169944Y-1511674D01*
X169944Y-1511674D02*
X188991Y-1502150D01*
X188991Y-1502150D02*
X217563Y-1502150D01*
X217563Y-1502150D02*
X236610Y-1511674D01*
X236610Y-1511674D02*
X246134Y-1530722D01*
X246134Y-1530722D02*
X246134Y-1635484D01*
X246134Y-1530722D02*
X255658Y-1511674D01*
X255658Y-1511674D02*
X274705Y-1502150D01*
X274705Y-1502150D02*
X303277Y-1502150D01*
X303277Y-1502150D02*
X322325Y-1511674D01*
X322325Y-1511674D02*
X331848Y-1530722D01*
X331848Y-1530722D02*
X331848Y-1635484D01*
X427086Y-1635484D02*
X427086Y-1502150D01*
X427086Y-1521198D02*
X436610Y-1511674D01*
X436610Y-1511674D02*
X455658Y-1502150D01*
X455658Y-1502150D02*
X484229Y-1502150D01*
X484229Y-1502150D02*
X503277Y-1511674D01*
X503277Y-1511674D02*
X512801Y-1530722D01*
X512801Y-1530722D02*
X512801Y-1635484D01*
X512801Y-1530722D02*
X522324Y-1511674D01*
X522324Y-1511674D02*
X541372Y-1502150D01*
X541372Y-1502150D02*
X569944Y-1502150D01*
X569944Y-1502150D02*
X588991Y-1511674D01*
X588991Y-1511674D02*
X598515Y-1530722D01*
X598515Y-1530722D02*
X598515Y-1635484D01*
X988991Y-1425960D02*
X817563Y-1683103D01*
X1246134Y-1435484D02*
X1265182Y-1435484D01*
X1265182Y-1435484D02*
X1284229Y-1445008D01*
X1284229Y-1445008D02*
X1293753Y-1454531D01*
X1293753Y-1454531D02*
X1303277Y-1473579D01*
X1303277Y-1473579D02*
X1312801Y-1511674D01*
X1312801Y-1511674D02*
X1312801Y-1559293D01*
X1312801Y-1559293D02*
X1303277Y-1597388D01*
X1303277Y-1597388D02*
X1293753Y-1616436D01*
X1293753Y-1616436D02*
X1284229Y-1625960D01*
X1284229Y-1625960D02*
X1265182Y-1635484D01*
X1265182Y-1635484D02*
X1246134Y-1635484D01*
X1246134Y-1635484D02*
X1227087Y-1625960D01*
X1227087Y-1625960D02*
X1217563Y-1616436D01*
X1217563Y-1616436D02*
X1208039Y-1597388D01*
X1208039Y-1597388D02*
X1198515Y-1559293D01*
X1198515Y-1559293D02*
X1198515Y-1511674D01*
X1198515Y-1511674D02*
X1208039Y-1473579D01*
X1208039Y-1473579D02*
X1217563Y-1454531D01*
X1217563Y-1454531D02*
X1227087Y-1445008D01*
X1227087Y-1445008D02*
X1246134Y-1435484D01*
X1398515Y-1616436D02*
X1408039Y-1625960D01*
X1408039Y-1625960D02*
X1398515Y-1635484D01*
X1398515Y-1635484D02*
X1388991Y-1625960D01*
X1388991Y-1625960D02*
X1398515Y-1616436D01*
X1398515Y-1616436D02*
X1398515Y-1635484D01*
X1531848Y-1435484D02*
X1550896Y-1435484D01*
X1550896Y-1435484D02*
X1569944Y-1445008D01*
X1569944Y-1445008D02*
X1579467Y-1454531D01*
X1579467Y-1454531D02*
X1588991Y-1473579D01*
X1588991Y-1473579D02*
X1598515Y-1511674D01*
X1598515Y-1511674D02*
X1598515Y-1559293D01*
X1598515Y-1559293D02*
X1588991Y-1597388D01*
X1588991Y-1597388D02*
X1579467Y-1616436D01*
X1579467Y-1616436D02*
X1569944Y-1625960D01*
X1569944Y-1625960D02*
X1550896Y-1635484D01*
X1550896Y-1635484D02*
X1531848Y-1635484D01*
X1531848Y-1635484D02*
X1512801Y-1625960D01*
X1512801Y-1625960D02*
X1503277Y-1616436D01*
X1503277Y-1616436D02*
X1493753Y-1597388D01*
X1493753Y-1597388D02*
X1484229Y-1559293D01*
X1484229Y-1559293D02*
X1484229Y-1511674D01*
X1484229Y-1511674D02*
X1493753Y-1473579D01*
X1493753Y-1473579D02*
X1503277Y-1454531D01*
X1503277Y-1454531D02*
X1512801Y-1445008D01*
X1512801Y-1445008D02*
X1531848Y-1435484D01*
X1665182Y-1435484D02*
X1788991Y-1435484D01*
X1788991Y-1435484D02*
X1722325Y-1511674D01*
X1722325Y-1511674D02*
X1750896Y-1511674D01*
X1750896Y-1511674D02*
X1769944Y-1521198D01*
X1769944Y-1521198D02*
X1779467Y-1530722D01*
X1779467Y-1530722D02*
X1788991Y-1549769D01*
X1788991Y-1549769D02*
X1788991Y-1597388D01*
X1788991Y-1597388D02*
X1779467Y-1616436D01*
X1779467Y-1616436D02*
X1769944Y-1625960D01*
X1769944Y-1625960D02*
X1750896Y-1635484D01*
X1750896Y-1635484D02*
X1693753Y-1635484D01*
X1693753Y-1635484D02*
X1674706Y-1625960D01*
X1674706Y-1625960D02*
X1665182Y-1616436D01*
X1884229Y-1635484D02*
X1922325Y-1635484D01*
X1922325Y-1635484D02*
X1941372Y-1625960D01*
X1941372Y-1625960D02*
X1950896Y-1616436D01*
X1950896Y-1616436D02*
X1969944Y-1587865D01*
X1969944Y-1587865D02*
X1979467Y-1549769D01*
X1979467Y-1549769D02*
X1979467Y-1473579D01*
X1979467Y-1473579D02*
X1969944Y-1454531D01*
X1969944Y-1454531D02*
X1960420Y-1445008D01*
X1960420Y-1445008D02*
X1941372Y-1435484D01*
X1941372Y-1435484D02*
X1903277Y-1435484D01*
X1903277Y-1435484D02*
X1884229Y-1445008D01*
X1884229Y-1445008D02*
X1874706Y-1454531D01*
X1874706Y-1454531D02*
X1865182Y-1473579D01*
X1865182Y-1473579D02*
X1865182Y-1521198D01*
X1865182Y-1521198D02*
X1874706Y-1540246D01*
X1874706Y-1540246D02*
X1884229Y-1549769D01*
X1884229Y-1549769D02*
X1903277Y-1559293D01*
X1903277Y-1559293D02*
X1941372Y-1559293D01*
X1941372Y-1559293D02*
X1960420Y-1549769D01*
X1960420Y-1549769D02*
X1969944Y-1540246D01*
X1969944Y-1540246D02*
X1979467Y-1521198D01*
X2150896Y-1502150D02*
X2150896Y-1635484D01*
X2103277Y-1425960D02*
X2055658Y-1568817D01*
X2055658Y-1568817D02*
X2179468Y-1568817D01*
X2246134Y-1435484D02*
X2246134Y-1473579D01*
X2322325Y-1435484D02*
X2322325Y-1473579D01*
X2617563Y-1711674D02*
X2608039Y-1702150D01*
X2608039Y-1702150D02*
X2588991Y-1673579D01*
X2588991Y-1673579D02*
X2579468Y-1654531D01*
X2579468Y-1654531D02*
X2569944Y-1625960D01*
X2569944Y-1625960D02*
X2560420Y-1578341D01*
X2560420Y-1578341D02*
X2560420Y-1540246D01*
X2560420Y-1540246D02*
X2569944Y-1492627D01*
X2569944Y-1492627D02*
X2579468Y-1464055D01*
X2579468Y-1464055D02*
X2588991Y-1445008D01*
X2588991Y-1445008D02*
X2608039Y-1416436D01*
X2608039Y-1416436D02*
X2617563Y-1406912D01*
X2779468Y-1435484D02*
X2741372Y-1435484D01*
X2741372Y-1435484D02*
X2722325Y-1445008D01*
X2722325Y-1445008D02*
X2712801Y-1454531D01*
X2712801Y-1454531D02*
X2693753Y-1483103D01*
X2693753Y-1483103D02*
X2684230Y-1521198D01*
X2684230Y-1521198D02*
X2684230Y-1597388D01*
X2684230Y-1597388D02*
X2693753Y-1616436D01*
X2693753Y-1616436D02*
X2703277Y-1625960D01*
X2703277Y-1625960D02*
X2722325Y-1635484D01*
X2722325Y-1635484D02*
X2760420Y-1635484D01*
X2760420Y-1635484D02*
X2779468Y-1625960D01*
X2779468Y-1625960D02*
X2788991Y-1616436D01*
X2788991Y-1616436D02*
X2798515Y-1597388D01*
X2798515Y-1597388D02*
X2798515Y-1549769D01*
X2798515Y-1549769D02*
X2788991Y-1530722D01*
X2788991Y-1530722D02*
X2779468Y-1521198D01*
X2779468Y-1521198D02*
X2760420Y-1511674D01*
X2760420Y-1511674D02*
X2722325Y-1511674D01*
X2722325Y-1511674D02*
X2703277Y-1521198D01*
X2703277Y-1521198D02*
X2693753Y-1530722D01*
X2693753Y-1530722D02*
X2684230Y-1549769D01*
X3036610Y-1635484D02*
X3036610Y-1435484D01*
X3122325Y-1635484D02*
X3122325Y-1530722D01*
X3122325Y-1530722D02*
X3112801Y-1511674D01*
X3112801Y-1511674D02*
X3093753Y-1502150D01*
X3093753Y-1502150D02*
X3065182Y-1502150D01*
X3065182Y-1502150D02*
X3046134Y-1511674D01*
X3046134Y-1511674D02*
X3036610Y-1521198D01*
X3246134Y-1635484D02*
X3227087Y-1625960D01*
X3227087Y-1625960D02*
X3217563Y-1616436D01*
X3217563Y-1616436D02*
X3208039Y-1597388D01*
X3208039Y-1597388D02*
X3208039Y-1540246D01*
X3208039Y-1540246D02*
X3217563Y-1521198D01*
X3217563Y-1521198D02*
X3227087Y-1511674D01*
X3227087Y-1511674D02*
X3246134Y-1502150D01*
X3246134Y-1502150D02*
X3274706Y-1502150D01*
X3274706Y-1502150D02*
X3293753Y-1511674D01*
X3293753Y-1511674D02*
X3303277Y-1521198D01*
X3303277Y-1521198D02*
X3312801Y-1540246D01*
X3312801Y-1540246D02*
X3312801Y-1597388D01*
X3312801Y-1597388D02*
X3303277Y-1616436D01*
X3303277Y-1616436D02*
X3293753Y-1625960D01*
X3293753Y-1625960D02*
X3274706Y-1635484D01*
X3274706Y-1635484D02*
X3246134Y-1635484D01*
X3427087Y-1635484D02*
X3408039Y-1625960D01*
X3408039Y-1625960D02*
X3398515Y-1606912D01*
X3398515Y-1606912D02*
X3398515Y-1435484D01*
X3579468Y-1625960D02*
X3560420Y-1635484D01*
X3560420Y-1635484D02*
X3522325Y-1635484D01*
X3522325Y-1635484D02*
X3503277Y-1625960D01*
X3503277Y-1625960D02*
X3493753Y-1606912D01*
X3493753Y-1606912D02*
X3493753Y-1530722D01*
X3493753Y-1530722D02*
X3503277Y-1511674D01*
X3503277Y-1511674D02*
X3522325Y-1502150D01*
X3522325Y-1502150D02*
X3560420Y-1502150D01*
X3560420Y-1502150D02*
X3579468Y-1511674D01*
X3579468Y-1511674D02*
X3588991Y-1530722D01*
X3588991Y-1530722D02*
X3588991Y-1549769D01*
X3588991Y-1549769D02*
X3493753Y-1568817D01*
X3665182Y-1625960D02*
X3684230Y-1635484D01*
X3684230Y-1635484D02*
X3722325Y-1635484D01*
X3722325Y-1635484D02*
X3741372Y-1625960D01*
X3741372Y-1625960D02*
X3750896Y-1606912D01*
X3750896Y-1606912D02*
X3750896Y-1597388D01*
X3750896Y-1597388D02*
X3741372Y-1578341D01*
X3741372Y-1578341D02*
X3722325Y-1568817D01*
X3722325Y-1568817D02*
X3693753Y-1568817D01*
X3693753Y-1568817D02*
X3674706Y-1559293D01*
X3674706Y-1559293D02*
X3665182Y-1540246D01*
X3665182Y-1540246D02*
X3665182Y-1530722D01*
X3665182Y-1530722D02*
X3674706Y-1511674D01*
X3674706Y-1511674D02*
X3693753Y-1502150D01*
X3693753Y-1502150D02*
X3722325Y-1502150D01*
X3722325Y-1502150D02*
X3741372Y-1511674D01*
X3817563Y-1711674D02*
X3827087Y-1702150D01*
X3827087Y-1702150D02*
X3846134Y-1673579D01*
X3846134Y-1673579D02*
X3855658Y-1654531D01*
X3855658Y-1654531D02*
X3865182Y-1625960D01*
X3865182Y-1625960D02*
X3874706Y-1578341D01*
X3874706Y-1578341D02*
X3874706Y-1540246D01*
X3874706Y-1540246D02*
X3865182Y-1492627D01*
X3865182Y-1492627D02*
X3855658Y-1464055D01*
X3855658Y-1464055D02*
X3846134Y-1445008D01*
X3846134Y-1445008D02*
X3827087Y-1416436D01*
X3827087Y-1416436D02*
X3817563Y-1406912D01*
M02*
