%TF.GenerationSoftware,KiCad,Pcbnew,7.0.9*%
%TF.CreationDate,2024-01-09T19:27:13+00:00*%
%TF.ProjectId,OPA990 Breakout,4f504139-3930-4204-9272-65616b6f7574,V24.01.0.1*%
%TF.SameCoordinates,PX8c7ecc0PY5c0c740*%
%TF.FileFunction,Legend,Top*%
%TF.FilePolarity,Positive*%
%FSLAX46Y46*%
G04 Gerber Fmt 4.6, Leading zero omitted, Abs format (unit mm)*
G04 Created by KiCad (PCBNEW 7.0.9) date 2024-01-09 19:27:13*
%MOMM*%
%LPD*%
G01*
G04 APERTURE LIST*
%ADD10C,0.150000*%
%ADD11C,0.120000*%
G04 APERTURE END LIST*
D10*
X-3275000Y3540229D02*
X-3475000Y3825943D01*
X-3617857Y3540229D02*
X-3617857Y4140229D01*
X-3617857Y4140229D02*
X-3389286Y4140229D01*
X-3389286Y4140229D02*
X-3332143Y4111658D01*
X-3332143Y4111658D02*
X-3303572Y4083086D01*
X-3303572Y4083086D02*
X-3275000Y4025943D01*
X-3275000Y4025943D02*
X-3275000Y3940229D01*
X-3275000Y3940229D02*
X-3303572Y3883086D01*
X-3303572Y3883086D02*
X-3332143Y3854515D01*
X-3332143Y3854515D02*
X-3389286Y3825943D01*
X-3389286Y3825943D02*
X-3617857Y3825943D01*
X-2703572Y3540229D02*
X-3046429Y3540229D01*
X-2875000Y3540229D02*
X-2875000Y4140229D01*
X-2875000Y4140229D02*
X-2932143Y4054515D01*
X-2932143Y4054515D02*
X-2989286Y3997372D01*
X-2989286Y3997372D02*
X-3046429Y3968800D01*
X2440000Y-4149628D02*
X2411428Y-4178200D01*
X2411428Y-4178200D02*
X2325714Y-4206771D01*
X2325714Y-4206771D02*
X2268571Y-4206771D01*
X2268571Y-4206771D02*
X2182857Y-4178200D01*
X2182857Y-4178200D02*
X2125714Y-4121057D01*
X2125714Y-4121057D02*
X2097143Y-4063914D01*
X2097143Y-4063914D02*
X2068571Y-3949628D01*
X2068571Y-3949628D02*
X2068571Y-3863914D01*
X2068571Y-3863914D02*
X2097143Y-3749628D01*
X2097143Y-3749628D02*
X2125714Y-3692485D01*
X2125714Y-3692485D02*
X2182857Y-3635342D01*
X2182857Y-3635342D02*
X2268571Y-3606771D01*
X2268571Y-3606771D02*
X2325714Y-3606771D01*
X2325714Y-3606771D02*
X2411428Y-3635342D01*
X2411428Y-3635342D02*
X2440000Y-3663914D01*
X3011428Y-4206771D02*
X2668571Y-4206771D01*
X2840000Y-4206771D02*
X2840000Y-3606771D01*
X2840000Y-3606771D02*
X2782857Y-3692485D01*
X2782857Y-3692485D02*
X2725714Y-3749628D01*
X2725714Y-3749628D02*
X2668571Y-3778200D01*
X-6069000Y1000229D02*
X-6269000Y1285943D01*
X-6411857Y1000229D02*
X-6411857Y1600229D01*
X-6411857Y1600229D02*
X-6183286Y1600229D01*
X-6183286Y1600229D02*
X-6126143Y1571658D01*
X-6126143Y1571658D02*
X-6097572Y1543086D01*
X-6097572Y1543086D02*
X-6069000Y1485943D01*
X-6069000Y1485943D02*
X-6069000Y1400229D01*
X-6069000Y1400229D02*
X-6097572Y1343086D01*
X-6097572Y1343086D02*
X-6126143Y1314515D01*
X-6126143Y1314515D02*
X-6183286Y1285943D01*
X-6183286Y1285943D02*
X-6411857Y1285943D01*
X-5840429Y1543086D02*
X-5811857Y1571658D01*
X-5811857Y1571658D02*
X-5754714Y1600229D01*
X-5754714Y1600229D02*
X-5611857Y1600229D01*
X-5611857Y1600229D02*
X-5554714Y1571658D01*
X-5554714Y1571658D02*
X-5526143Y1543086D01*
X-5526143Y1543086D02*
X-5497572Y1485943D01*
X-5497572Y1485943D02*
X-5497572Y1428800D01*
X-5497572Y1428800D02*
X-5526143Y1343086D01*
X-5526143Y1343086D02*
X-5869000Y1000229D01*
X-5869000Y1000229D02*
X-5497572Y1000229D01*
X-3275000Y-3444771D02*
X-3475000Y-3159057D01*
X-3617857Y-3444771D02*
X-3617857Y-2844771D01*
X-3617857Y-2844771D02*
X-3389286Y-2844771D01*
X-3389286Y-2844771D02*
X-3332143Y-2873342D01*
X-3332143Y-2873342D02*
X-3303572Y-2901914D01*
X-3303572Y-2901914D02*
X-3275000Y-2959057D01*
X-3275000Y-2959057D02*
X-3275000Y-3044771D01*
X-3275000Y-3044771D02*
X-3303572Y-3101914D01*
X-3303572Y-3101914D02*
X-3332143Y-3130485D01*
X-3332143Y-3130485D02*
X-3389286Y-3159057D01*
X-3389286Y-3159057D02*
X-3617857Y-3159057D01*
X-2732143Y-2844771D02*
X-3017857Y-2844771D01*
X-3017857Y-2844771D02*
X-3046429Y-3130485D01*
X-3046429Y-3130485D02*
X-3017857Y-3101914D01*
X-3017857Y-3101914D02*
X-2960714Y-3073342D01*
X-2960714Y-3073342D02*
X-2817857Y-3073342D01*
X-2817857Y-3073342D02*
X-2760714Y-3101914D01*
X-2760714Y-3101914D02*
X-2732143Y-3130485D01*
X-2732143Y-3130485D02*
X-2703572Y-3187628D01*
X-2703572Y-3187628D02*
X-2703572Y-3330485D01*
X-2703572Y-3330485D02*
X-2732143Y-3387628D01*
X-2732143Y-3387628D02*
X-2760714Y-3416200D01*
X-2760714Y-3416200D02*
X-2817857Y-3444771D01*
X-2817857Y-3444771D02*
X-2960714Y-3444771D01*
X-2960714Y-3444771D02*
X-3017857Y-3416200D01*
X-3017857Y-3416200D02*
X-3046429Y-3387628D01*
X4091000Y-212628D02*
X4062428Y-241200D01*
X4062428Y-241200D02*
X3976714Y-269771D01*
X3976714Y-269771D02*
X3919571Y-269771D01*
X3919571Y-269771D02*
X3833857Y-241200D01*
X3833857Y-241200D02*
X3776714Y-184057D01*
X3776714Y-184057D02*
X3748143Y-126914D01*
X3748143Y-126914D02*
X3719571Y-12628D01*
X3719571Y-12628D02*
X3719571Y73086D01*
X3719571Y73086D02*
X3748143Y187372D01*
X3748143Y187372D02*
X3776714Y244515D01*
X3776714Y244515D02*
X3833857Y301658D01*
X3833857Y301658D02*
X3919571Y330229D01*
X3919571Y330229D02*
X3976714Y330229D01*
X3976714Y330229D02*
X4062428Y301658D01*
X4062428Y301658D02*
X4091000Y273086D01*
X4319571Y273086D02*
X4348143Y301658D01*
X4348143Y301658D02*
X4405286Y330229D01*
X4405286Y330229D02*
X4548143Y330229D01*
X4548143Y330229D02*
X4605286Y301658D01*
X4605286Y301658D02*
X4633857Y273086D01*
X4633857Y273086D02*
X4662428Y215943D01*
X4662428Y215943D02*
X4662428Y158800D01*
X4662428Y158800D02*
X4633857Y73086D01*
X4633857Y73086D02*
X4291000Y-269771D01*
X4291000Y-269771D02*
X4662428Y-269771D01*
X2440000Y3667229D02*
X2240000Y3952943D01*
X2097143Y3667229D02*
X2097143Y4267229D01*
X2097143Y4267229D02*
X2325714Y4267229D01*
X2325714Y4267229D02*
X2382857Y4238658D01*
X2382857Y4238658D02*
X2411428Y4210086D01*
X2411428Y4210086D02*
X2440000Y4152943D01*
X2440000Y4152943D02*
X2440000Y4067229D01*
X2440000Y4067229D02*
X2411428Y4010086D01*
X2411428Y4010086D02*
X2382857Y3981515D01*
X2382857Y3981515D02*
X2325714Y3952943D01*
X2325714Y3952943D02*
X2097143Y3952943D01*
X2640000Y4267229D02*
X3011428Y4267229D01*
X3011428Y4267229D02*
X2811428Y4038658D01*
X2811428Y4038658D02*
X2897143Y4038658D01*
X2897143Y4038658D02*
X2954286Y4010086D01*
X2954286Y4010086D02*
X2982857Y3981515D01*
X2982857Y3981515D02*
X3011428Y3924372D01*
X3011428Y3924372D02*
X3011428Y3781515D01*
X3011428Y3781515D02*
X2982857Y3724372D01*
X2982857Y3724372D02*
X2954286Y3695800D01*
X2954286Y3695800D02*
X2897143Y3667229D01*
X2897143Y3667229D02*
X2725714Y3667229D01*
X2725714Y3667229D02*
X2668571Y3695800D01*
X2668571Y3695800D02*
X2640000Y3724372D01*
X-6069000Y-1539771D02*
X-6269000Y-1254057D01*
X-6411857Y-1539771D02*
X-6411857Y-939771D01*
X-6411857Y-939771D02*
X-6183286Y-939771D01*
X-6183286Y-939771D02*
X-6126143Y-968342D01*
X-6126143Y-968342D02*
X-6097572Y-996914D01*
X-6097572Y-996914D02*
X-6069000Y-1054057D01*
X-6069000Y-1054057D02*
X-6069000Y-1139771D01*
X-6069000Y-1139771D02*
X-6097572Y-1196914D01*
X-6097572Y-1196914D02*
X-6126143Y-1225485D01*
X-6126143Y-1225485D02*
X-6183286Y-1254057D01*
X-6183286Y-1254057D02*
X-6411857Y-1254057D01*
X-5554714Y-1139771D02*
X-5554714Y-1539771D01*
X-5697572Y-911200D02*
X-5840429Y-1339771D01*
X-5840429Y-1339771D02*
X-5469000Y-1339771D01*
X-3275000Y-5292628D02*
X-3303572Y-5321200D01*
X-3303572Y-5321200D02*
X-3389286Y-5349771D01*
X-3389286Y-5349771D02*
X-3446429Y-5349771D01*
X-3446429Y-5349771D02*
X-3532143Y-5321200D01*
X-3532143Y-5321200D02*
X-3589286Y-5264057D01*
X-3589286Y-5264057D02*
X-3617857Y-5206914D01*
X-3617857Y-5206914D02*
X-3646429Y-5092628D01*
X-3646429Y-5092628D02*
X-3646429Y-5006914D01*
X-3646429Y-5006914D02*
X-3617857Y-4892628D01*
X-3617857Y-4892628D02*
X-3589286Y-4835485D01*
X-3589286Y-4835485D02*
X-3532143Y-4778342D01*
X-3532143Y-4778342D02*
X-3446429Y-4749771D01*
X-3446429Y-4749771D02*
X-3389286Y-4749771D01*
X-3389286Y-4749771D02*
X-3303572Y-4778342D01*
X-3303572Y-4778342D02*
X-3275000Y-4806914D01*
X-2760714Y-4949771D02*
X-2760714Y-5349771D01*
X-2903572Y-4721200D02*
X-3046429Y-5149771D01*
X-3046429Y-5149771D02*
X-2675000Y-5149771D01*
X5272143Y4670229D02*
X5272143Y5270229D01*
X5272143Y5270229D02*
X5415000Y5270229D01*
X5415000Y5270229D02*
X5500714Y5241658D01*
X5500714Y5241658D02*
X5557857Y5184515D01*
X5557857Y5184515D02*
X5586428Y5127372D01*
X5586428Y5127372D02*
X5615000Y5013086D01*
X5615000Y5013086D02*
X5615000Y4927372D01*
X5615000Y4927372D02*
X5586428Y4813086D01*
X5586428Y4813086D02*
X5557857Y4755943D01*
X5557857Y4755943D02*
X5500714Y4698800D01*
X5500714Y4698800D02*
X5415000Y4670229D01*
X5415000Y4670229D02*
X5272143Y4670229D01*
X6186428Y4670229D02*
X5843571Y4670229D01*
X6015000Y4670229D02*
X6015000Y5270229D01*
X6015000Y5270229D02*
X5957857Y5184515D01*
X5957857Y5184515D02*
X5900714Y5127372D01*
X5900714Y5127372D02*
X5843571Y5098800D01*
X1942857Y330229D02*
X1942857Y-155485D01*
X1942857Y-155485D02*
X1971428Y-212628D01*
X1971428Y-212628D02*
X2000000Y-241200D01*
X2000000Y-241200D02*
X2057142Y-269771D01*
X2057142Y-269771D02*
X2171428Y-269771D01*
X2171428Y-269771D02*
X2228571Y-241200D01*
X2228571Y-241200D02*
X2257142Y-212628D01*
X2257142Y-212628D02*
X2285714Y-155485D01*
X2285714Y-155485D02*
X2285714Y330229D01*
X2885713Y-269771D02*
X2542856Y-269771D01*
X2714285Y-269771D02*
X2714285Y330229D01*
X2714285Y330229D02*
X2657142Y244515D01*
X2657142Y244515D02*
X2599999Y187372D01*
X2599999Y187372D02*
X2542856Y158800D01*
X1170000Y4727372D02*
X1141428Y4698800D01*
X1141428Y4698800D02*
X1055714Y4670229D01*
X1055714Y4670229D02*
X998571Y4670229D01*
X998571Y4670229D02*
X912857Y4698800D01*
X912857Y4698800D02*
X855714Y4755943D01*
X855714Y4755943D02*
X827143Y4813086D01*
X827143Y4813086D02*
X798571Y4927372D01*
X798571Y4927372D02*
X798571Y5013086D01*
X798571Y5013086D02*
X827143Y5127372D01*
X827143Y5127372D02*
X855714Y5184515D01*
X855714Y5184515D02*
X912857Y5241658D01*
X912857Y5241658D02*
X998571Y5270229D01*
X998571Y5270229D02*
X1055714Y5270229D01*
X1055714Y5270229D02*
X1141428Y5241658D01*
X1141428Y5241658D02*
X1170000Y5213086D01*
X1370000Y5270229D02*
X1741428Y5270229D01*
X1741428Y5270229D02*
X1541428Y5041658D01*
X1541428Y5041658D02*
X1627143Y5041658D01*
X1627143Y5041658D02*
X1684286Y5013086D01*
X1684286Y5013086D02*
X1712857Y4984515D01*
X1712857Y4984515D02*
X1741428Y4927372D01*
X1741428Y4927372D02*
X1741428Y4784515D01*
X1741428Y4784515D02*
X1712857Y4727372D01*
X1712857Y4727372D02*
X1684286Y4698800D01*
X1684286Y4698800D02*
X1627143Y4670229D01*
X1627143Y4670229D02*
X1455714Y4670229D01*
X1455714Y4670229D02*
X1398571Y4698800D01*
X1398571Y4698800D02*
X1370000Y4727372D01*
%TO.C,kibuzzard-659D9D77*%
G36*
X-4290219Y-557530D02*
G01*
X-4488656Y-557530D01*
X-4831556Y-557530D01*
X-5325904Y-557530D01*
X-5815489Y-557530D01*
X-6179344Y-557530D01*
X-6377781Y-557530D01*
X-6377781Y279083D01*
X-6179344Y279083D01*
X-6165056Y233363D01*
X-5902166Y-300038D01*
X-5870258Y-333851D01*
X-5825014Y-346710D01*
X-5815489Y-346710D01*
X-5771198Y-333851D01*
X-5739289Y-300038D01*
X-5720980Y-262890D01*
X-5409724Y-262890D01*
X-5404009Y-311468D01*
X-5378768Y-338614D01*
X-5325904Y-347663D01*
X-5276850Y-341233D01*
X-5251609Y-321945D01*
X-5242560Y-297180D01*
X-5241131Y-263842D01*
X-5241131Y-4762D01*
X-5179219Y-4762D01*
X-5172879Y-74652D01*
X-5153858Y-139541D01*
X-5122158Y-199430D01*
X-5077778Y-254317D01*
X-5024348Y-300157D01*
X-4965502Y-332899D01*
X-4901238Y-352544D01*
X-4831556Y-359093D01*
X-4762024Y-352455D01*
X-4698206Y-332542D01*
X-4640104Y-299353D01*
X-4587716Y-252889D01*
X-4544378Y-196989D01*
X-4513421Y-135493D01*
X-4494847Y-68401D01*
X-4488656Y4286D01*
X-4495145Y76706D01*
X-4514612Y142994D01*
X-4547056Y203150D01*
X-4592479Y257175D01*
X-4646712Y301764D01*
X-4705588Y333613D01*
X-4769108Y352723D01*
X-4837271Y359093D01*
X-4902041Y352425D01*
X-4964906Y332423D01*
X-5023247Y300752D01*
X-5074444Y259080D01*
X-5117306Y206812D01*
X-5150644Y143351D01*
X-5172075Y71795D01*
X-5179219Y-4762D01*
X-5241131Y-4762D01*
X-5241131Y265747D01*
X-5245894Y315278D01*
X-5271849Y341709D01*
X-5324951Y350520D01*
X-5374005Y344091D01*
X-5399246Y324803D01*
X-5408295Y299561D01*
X-5409724Y266700D01*
X-5409724Y-262890D01*
X-5720980Y-262890D01*
X-5476399Y233363D01*
X-5462111Y279083D01*
X-5476161Y310991D01*
X-5518309Y340042D01*
X-5574506Y356235D01*
X-5616416Y330518D01*
X-5629751Y301943D01*
X-5820251Y-115252D01*
X-5830610Y-93226D01*
X-5854065Y-42386D01*
X-5885021Y24884D01*
X-5917883Y96203D01*
X-5950625Y167521D01*
X-5981224Y234791D01*
X-6005155Y287179D01*
X-6017895Y313849D01*
X-6033611Y339090D01*
X-6049804Y352425D01*
X-6075045Y356235D01*
X-6123146Y340042D01*
X-6165294Y310991D01*
X-6179344Y279083D01*
X-6377781Y279083D01*
X-6377781Y557530D01*
X-6179344Y557530D01*
X-4488656Y557530D01*
X-4290219Y557530D01*
X-4290219Y-557530D01*
G37*
G36*
X-4770001Y177403D02*
G01*
X-4712017Y138113D01*
X-4681590Y99378D01*
X-4663334Y53023D01*
X-4657249Y-952D01*
X-4663281Y-54822D01*
X-4681379Y-100859D01*
X-4711541Y-139065D01*
X-4769168Y-177641D01*
X-4833461Y-190500D01*
X-4897874Y-177284D01*
X-4955857Y-137636D01*
X-4986285Y-98848D01*
X-5004541Y-52970D01*
X-5010626Y0D01*
X-5004594Y52970D01*
X-4986496Y98848D01*
X-4956334Y137636D01*
X-4898707Y177284D01*
X-4834414Y190500D01*
X-4770001Y177403D01*
G37*
%TO.C,kibuzzard-659D9D68*%
G36*
X-6781006Y-4992529D02*
G01*
X-6979444Y-4992529D01*
X-7048976Y-4992529D01*
X-7490936Y-4992529D01*
X-8176736Y-4992529D01*
X-8260556Y-4992529D01*
X-8458994Y-4992529D01*
X-8458994Y-4709319D01*
X-8260556Y-4709319D01*
X-8254841Y-4757896D01*
X-8229600Y-4785042D01*
X-8176736Y-4794091D01*
X-8127683Y-4787662D01*
X-8102441Y-4768374D01*
X-8093393Y-4743609D01*
X-8091964Y-4710271D01*
X-8091964Y-4709319D01*
X-8015764Y-4709319D01*
X-8014335Y-4742656D01*
X-8005286Y-4768374D01*
X-7980521Y-4787662D01*
X-7932896Y-4794091D01*
X-7883843Y-4787662D01*
X-7858601Y-4768374D01*
X-7849553Y-4743609D01*
X-7848124Y-4710271D01*
X-7848124Y-4396899D01*
X-7821507Y-4431612D01*
X-7786740Y-4477332D01*
X-7743825Y-4534059D01*
X-7692760Y-4601792D01*
X-7633547Y-4680532D01*
X-7566184Y-4770279D01*
X-7542371Y-4788376D01*
X-7490936Y-4794091D01*
X-7441883Y-4787662D01*
X-7416641Y-4768374D01*
X-7407593Y-4743609D01*
X-7406164Y-4710271D01*
X-7406164Y-4585494D01*
X-7344251Y-4585494D01*
X-7339489Y-4629309D01*
X-7318296Y-4653598D01*
X-7275671Y-4661694D01*
X-7048976Y-4661694D01*
X-7001351Y-4653121D01*
X-6984682Y-4629785D01*
X-6979444Y-4586446D01*
X-6985159Y-4542631D01*
X-7005638Y-4519057D01*
X-7048024Y-4511199D01*
X-7274719Y-4511199D01*
X-7320439Y-4519771D01*
X-7338536Y-4542631D01*
X-7344251Y-4585494D01*
X-7406164Y-4585494D01*
X-7406164Y-4181634D01*
X-7411879Y-4133056D01*
X-7423785Y-4113054D01*
X-7448550Y-4101624D01*
X-7492365Y-4096861D01*
X-7537609Y-4102576D01*
X-7564755Y-4124960D01*
X-7573804Y-4177824D01*
X-7573804Y-4499769D01*
X-7600050Y-4465399D01*
X-7633705Y-4420711D01*
X-7674769Y-4365704D01*
X-7723240Y-4300379D01*
X-7779120Y-4224734D01*
X-7842409Y-4138771D01*
X-7864316Y-4114006D01*
X-7887653Y-4102100D01*
X-7932896Y-4096861D01*
X-7979569Y-4102576D01*
X-8006715Y-4124960D01*
X-8015764Y-4177824D01*
X-8015764Y-4709319D01*
X-8091964Y-4709319D01*
X-8091964Y-4180681D01*
X-8096726Y-4131151D01*
X-8122682Y-4104719D01*
X-8175784Y-4095909D01*
X-8224838Y-4102338D01*
X-8250079Y-4121626D01*
X-8259128Y-4146867D01*
X-8260556Y-4179729D01*
X-8260556Y-4709319D01*
X-8458994Y-4709319D01*
X-8458994Y-3897471D01*
X-8260556Y-3897471D01*
X-6979444Y-3897471D01*
X-6781006Y-3897471D01*
X-6781006Y-4992529D01*
G37*
%TO.C,kibuzzard-659D9D4E*%
G36*
X-6736239Y4024471D02*
G01*
X-6934676Y4024471D01*
X-7161848Y4024471D01*
X-7535704Y4024471D01*
X-8221504Y4024471D01*
X-8305324Y4024471D01*
X-8503761Y4024471D01*
X-8503761Y4307681D01*
X-8305324Y4307681D01*
X-8299609Y4259104D01*
X-8274368Y4231958D01*
X-8221504Y4222909D01*
X-8172450Y4229338D01*
X-8147209Y4248626D01*
X-8138160Y4273391D01*
X-8136731Y4306729D01*
X-8136731Y4307681D01*
X-8060531Y4307681D01*
X-8059103Y4274344D01*
X-8050054Y4248626D01*
X-8025289Y4229338D01*
X-7977664Y4222909D01*
X-7928610Y4229338D01*
X-7903369Y4248626D01*
X-7894320Y4273391D01*
X-7892891Y4306729D01*
X-7892891Y4620101D01*
X-7866274Y4585388D01*
X-7831508Y4539668D01*
X-7788593Y4482941D01*
X-7737528Y4415208D01*
X-7678314Y4336468D01*
X-7610951Y4246721D01*
X-7587139Y4228624D01*
X-7535704Y4222909D01*
X-7486650Y4229338D01*
X-7461409Y4248626D01*
X-7452360Y4273391D01*
X-7450931Y4306729D01*
X-7450931Y4483894D01*
X-7389019Y4483894D01*
X-7384256Y4440555D01*
X-7365206Y4416266D01*
X-7319486Y4408646D01*
X-7236619Y4408646D01*
X-7236619Y4332446D01*
X-7228046Y4280059D01*
X-7205186Y4262437D01*
X-7161848Y4257199D01*
X-7118509Y4262437D01*
X-7094220Y4282916D01*
X-7086124Y4331494D01*
X-7086124Y4408646D01*
X-7004209Y4408646D01*
X-6955631Y4417219D01*
X-6939439Y4440079D01*
X-6934676Y4483418D01*
X-6939915Y4526756D01*
X-6960394Y4551045D01*
X-7008971Y4559141D01*
X-7086124Y4559141D01*
X-7086124Y4635341D01*
X-7094696Y4687729D01*
X-7118032Y4705350D01*
X-7161371Y4710589D01*
X-7204710Y4705350D01*
X-7228999Y4684871D01*
X-7236619Y4636294D01*
X-7236619Y4559141D01*
X-7312819Y4559141D01*
X-7365206Y4550569D01*
X-7383780Y4527232D01*
X-7389019Y4483894D01*
X-7450931Y4483894D01*
X-7450931Y4835366D01*
X-7456646Y4883944D01*
X-7468553Y4903946D01*
X-7493317Y4915376D01*
X-7537133Y4920139D01*
X-7582376Y4914424D01*
X-7609523Y4892040D01*
X-7618571Y4839176D01*
X-7618571Y4517231D01*
X-7644818Y4551601D01*
X-7678473Y4596289D01*
X-7719536Y4651296D01*
X-7768008Y4716621D01*
X-7823888Y4792266D01*
X-7887176Y4878229D01*
X-7909084Y4902994D01*
X-7932420Y4914900D01*
X-7977664Y4920139D01*
X-8024336Y4914424D01*
X-8051483Y4892040D01*
X-8060531Y4839176D01*
X-8060531Y4307681D01*
X-8136731Y4307681D01*
X-8136731Y4836319D01*
X-8141494Y4885849D01*
X-8167449Y4912281D01*
X-8220551Y4921091D01*
X-8269605Y4914662D01*
X-8294846Y4895374D01*
X-8303895Y4870133D01*
X-8305324Y4837271D01*
X-8305324Y4307681D01*
X-8503761Y4307681D01*
X-8503761Y5119529D01*
X-8305324Y5119529D01*
X-6934676Y5119529D01*
X-6736239Y5119529D01*
X-6736239Y4024471D01*
G37*
%TO.C,kibuzzard-659D9D38*%
G36*
X8989378Y-1954530D02*
G01*
X8790940Y-1954530D01*
X8456613Y-1954530D01*
X7761764Y-1954530D01*
X7050723Y-1954530D01*
X6703060Y-1954530D01*
X6504622Y-1954530D01*
X6504622Y-1401762D01*
X6703060Y-1401762D01*
X6709400Y-1471652D01*
X6728420Y-1536541D01*
X6760121Y-1596430D01*
X6804501Y-1651317D01*
X6857931Y-1697157D01*
X6916777Y-1729899D01*
X6981041Y-1749544D01*
X7050723Y-1756093D01*
X7120255Y-1749455D01*
X7184073Y-1729542D01*
X7242175Y-1696353D01*
X7294563Y-1649889D01*
X7337901Y-1593989D01*
X7368858Y-1532493D01*
X7387431Y-1465401D01*
X7391554Y-1417002D01*
X7455535Y-1417002D01*
X7460357Y-1479153D01*
X7474823Y-1537970D01*
X7498933Y-1593453D01*
X7532688Y-1645603D01*
X7575431Y-1690370D01*
X7629366Y-1725613D01*
X7692231Y-1748473D01*
X7761764Y-1756093D01*
X7831415Y-1748592D01*
X7894638Y-1726089D01*
X7949168Y-1691442D01*
X7992745Y-1647508D01*
X8026916Y-1594644D01*
X8051324Y-1538923D01*
X8065968Y-1480344D01*
X8070850Y-1418907D01*
X8070850Y-1131253D01*
X8068872Y-1114107D01*
X8123238Y-1114107D01*
X8128000Y-1154112D01*
X8147050Y-1176496D01*
X8191818Y-1183640D01*
X8374698Y-1183640D01*
X8374698Y-1661795D01*
X8376126Y-1694656D01*
X8384699Y-1719421D01*
X8409464Y-1738948D01*
X8456613Y-1744663D01*
X8504238Y-1738948D01*
X8529479Y-1719421D01*
X8538051Y-1695132D01*
X8539480Y-1662747D01*
X8539480Y-1183640D01*
X8721408Y-1183640D01*
X8769985Y-1175067D01*
X8786178Y-1154589D01*
X8790940Y-1115060D01*
X8786178Y-1075055D01*
X8767128Y-1052671D01*
X8722360Y-1045527D01*
X8192770Y-1045527D01*
X8144193Y-1054100D01*
X8128000Y-1074579D01*
X8123238Y-1114107D01*
X8068872Y-1114107D01*
X8065135Y-1081722D01*
X8052753Y-1061720D01*
X8027988Y-1050290D01*
X7984649Y-1045527D01*
X7939405Y-1051242D01*
X7911783Y-1072197D01*
X7902258Y-1124585D01*
X7902258Y-1416050D01*
X7893685Y-1479629D01*
X7867968Y-1535112D01*
X7824867Y-1573689D01*
X7764145Y-1586547D01*
X7696518Y-1570355D01*
X7653655Y-1527492D01*
X7632224Y-1473676D01*
X7625080Y-1417002D01*
X7625080Y-1131253D01*
X7613650Y-1071245D01*
X7588885Y-1051242D01*
X7540308Y-1045527D01*
X7491730Y-1051242D01*
X7466013Y-1071245D01*
X7456964Y-1096486D01*
X7455535Y-1130300D01*
X7455535Y-1417002D01*
X7391554Y-1417002D01*
X7393623Y-1392714D01*
X7387134Y-1320294D01*
X7367667Y-1254006D01*
X7335222Y-1193850D01*
X7289800Y-1139825D01*
X7235567Y-1095236D01*
X7176691Y-1063387D01*
X7113171Y-1044277D01*
X7045008Y-1037907D01*
X6980238Y-1044575D01*
X6917373Y-1064577D01*
X6859032Y-1096248D01*
X6807835Y-1137920D01*
X6764973Y-1190188D01*
X6731635Y-1253649D01*
X6710204Y-1325205D01*
X6703060Y-1401762D01*
X6504622Y-1401762D01*
X6504622Y-839470D01*
X6703060Y-839470D01*
X8790940Y-839470D01*
X8989378Y-839470D01*
X8989378Y-1954530D01*
G37*
G36*
X7112278Y-1219597D02*
G01*
X7170261Y-1258887D01*
X7200688Y-1297622D01*
X7218945Y-1343977D01*
X7225030Y-1397952D01*
X7218998Y-1451822D01*
X7200900Y-1497859D01*
X7170738Y-1536065D01*
X7113111Y-1574641D01*
X7048818Y-1587500D01*
X6984405Y-1574284D01*
X6926421Y-1534636D01*
X6895994Y-1495848D01*
X6877738Y-1449970D01*
X6871652Y-1397000D01*
X6877685Y-1344030D01*
X6895783Y-1298152D01*
X6925945Y-1259364D01*
X6983571Y-1219716D01*
X7047865Y-1206500D01*
X7112278Y-1219597D01*
G37*
%TO.C,kibuzzard-659D9D29*%
G36*
X11267599Y-5003006D02*
G01*
X11069161Y-5003006D01*
X10814844Y-5003006D01*
X10259536Y-5003006D01*
X9614694Y-5003006D01*
X9250839Y-5003006D01*
X9052401Y-5003006D01*
X9052401Y-4168299D01*
X9250839Y-4168299D01*
X9265126Y-4214019D01*
X9528016Y-4747419D01*
X9559925Y-4781233D01*
X9605169Y-4794091D01*
X9614694Y-4794091D01*
X9658985Y-4781233D01*
X9690894Y-4747419D01*
X9742768Y-4642168D01*
X10006171Y-4642168D01*
X10030936Y-4696936D01*
X10039509Y-4707414D01*
X10067131Y-4736465D01*
X10109994Y-4766469D01*
X10174764Y-4793615D01*
X10215959Y-4801830D01*
X10259536Y-4804569D01*
X10316792Y-4798960D01*
X10371720Y-4782132D01*
X10424319Y-4754086D01*
X10460514Y-4723011D01*
X10489089Y-4681220D01*
X10503356Y-4642168D01*
X10561479Y-4642168D01*
X10586244Y-4696936D01*
X10594816Y-4707414D01*
X10622439Y-4736465D01*
X10665301Y-4766469D01*
X10730071Y-4793615D01*
X10771267Y-4801830D01*
X10814844Y-4804569D01*
X10872100Y-4798960D01*
X10927027Y-4782132D01*
X10979626Y-4754086D01*
X11015821Y-4723011D01*
X11044396Y-4681220D01*
X11062970Y-4630380D01*
X11069161Y-4572159D01*
X11063089Y-4515128D01*
X11044873Y-4467860D01*
X11017607Y-4431784D01*
X10984389Y-4408329D01*
X10946527Y-4392493D01*
X10905331Y-4379277D01*
X10864136Y-4368919D01*
X10826274Y-4361656D01*
X10765790Y-4339749D01*
X10741501Y-4297362D01*
X10761980Y-4256405D01*
X10813415Y-4241641D01*
X10864374Y-4254024D01*
X10879138Y-4266406D01*
X10890091Y-4275931D01*
X10939621Y-4294981D01*
X10973435Y-4283075D01*
X11006296Y-4247356D01*
X11029156Y-4194969D01*
X10999629Y-4148296D01*
X10975816Y-4130199D01*
X10910570Y-4100195D01*
X10860921Y-4089122D01*
X10806271Y-4085431D01*
X10739543Y-4092363D01*
X10682870Y-4113160D01*
X10636250Y-4147820D01*
X10601590Y-4191794D01*
X10580793Y-4240530D01*
X10573861Y-4294029D01*
X10579933Y-4350583D01*
X10598150Y-4398327D01*
X10625415Y-4435832D01*
X10658634Y-4461669D01*
X10696258Y-4480362D01*
X10736739Y-4496435D01*
X10777220Y-4509175D01*
X10814844Y-4517866D01*
X10875328Y-4539298D01*
X10899616Y-4575969D01*
X10889774Y-4616185D01*
X10860246Y-4640315D01*
X10811034Y-4648359D01*
X10765314Y-4633595D01*
X10727214Y-4602639D01*
X10684828Y-4566920D01*
X10652919Y-4555014D01*
X10602436Y-4577874D01*
X10571718Y-4613950D01*
X10561479Y-4642168D01*
X10503356Y-4642168D01*
X10507662Y-4630380D01*
X10513854Y-4572159D01*
X10507782Y-4515128D01*
X10489565Y-4467860D01*
X10462300Y-4431784D01*
X10429081Y-4408329D01*
X10391219Y-4392493D01*
X10350024Y-4379277D01*
X10308828Y-4368919D01*
X10270966Y-4361656D01*
X10210483Y-4339749D01*
X10186194Y-4297362D01*
X10206673Y-4256405D01*
X10258108Y-4241641D01*
X10309066Y-4254024D01*
X10323830Y-4266406D01*
X10334784Y-4275931D01*
X10384314Y-4294981D01*
X10418128Y-4283075D01*
X10450989Y-4247356D01*
X10473849Y-4194969D01*
X10444321Y-4148296D01*
X10420509Y-4130199D01*
X10355263Y-4100195D01*
X10305613Y-4089122D01*
X10250964Y-4085431D01*
X10184236Y-4092363D01*
X10127562Y-4113160D01*
X10080943Y-4147820D01*
X10046282Y-4191794D01*
X10025486Y-4240530D01*
X10018554Y-4294029D01*
X10024626Y-4350583D01*
X10042843Y-4398327D01*
X10070108Y-4435832D01*
X10103326Y-4461669D01*
X10140950Y-4480362D01*
X10181431Y-4496435D01*
X10221912Y-4509175D01*
X10259536Y-4517866D01*
X10320020Y-4539298D01*
X10344309Y-4575969D01*
X10334466Y-4616185D01*
X10304939Y-4640315D01*
X10255726Y-4648359D01*
X10210006Y-4633595D01*
X10171906Y-4602639D01*
X10129520Y-4566920D01*
X10097611Y-4555014D01*
X10047129Y-4577874D01*
X10016411Y-4613950D01*
X10006171Y-4642168D01*
X9742768Y-4642168D01*
X9953784Y-4214019D01*
X9968071Y-4168299D01*
X9954022Y-4136390D01*
X9911874Y-4107339D01*
X9855676Y-4091146D01*
X9813766Y-4116864D01*
X9800431Y-4145439D01*
X9609931Y-4562634D01*
X9599573Y-4540607D01*
X9576117Y-4489768D01*
X9545161Y-4422497D01*
X9512300Y-4351179D01*
X9479558Y-4279860D01*
X9448959Y-4212590D01*
X9425027Y-4160202D01*
X9412287Y-4133533D01*
X9396571Y-4108291D01*
X9380379Y-4094956D01*
X9355137Y-4091146D01*
X9307036Y-4107339D01*
X9264888Y-4136390D01*
X9250839Y-4168299D01*
X9052401Y-4168299D01*
X9052401Y-3886994D01*
X9250839Y-3886994D01*
X11069161Y-3886994D01*
X11267599Y-3886994D01*
X11267599Y-5003006D01*
G37*
%TO.C,kibuzzard-659D9D0E*%
G36*
X10903545Y4609187D02*
G01*
X10962005Y4570254D01*
X11002367Y4512032D01*
X11015821Y4441190D01*
X11002010Y4370586D01*
X10960576Y4313079D01*
X10901997Y4274860D01*
X10836751Y4262120D01*
X10744359Y4262120D01*
X10744359Y4622165D01*
X10835799Y4622165D01*
X10903545Y4609187D01*
G37*
G36*
X10232985Y4609187D02*
G01*
X10291445Y4570254D01*
X10331807Y4512032D01*
X10345261Y4441190D01*
X10331450Y4370586D01*
X10290016Y4313079D01*
X10231438Y4274860D01*
X10166191Y4262120D01*
X10073799Y4262120D01*
X10073799Y4622165D01*
X10165239Y4622165D01*
X10232985Y4609187D01*
G37*
G36*
X11382851Y3895090D02*
G01*
X11184414Y3895090D01*
X10833894Y3895090D01*
X10163334Y3895090D01*
X9499441Y3895090D01*
X9135586Y3895090D01*
X8937149Y3895090D01*
X8937149Y4719320D01*
X9135586Y4719320D01*
X9149874Y4673600D01*
X9412764Y4140200D01*
X9444672Y4106386D01*
X9489916Y4093527D01*
X9499441Y4093527D01*
X9543732Y4106386D01*
X9575641Y4140200D01*
X9594419Y4178300D01*
X9905206Y4178300D01*
X9916636Y4117340D01*
X9941878Y4099481D01*
X9989026Y4093527D01*
X10163334Y4093527D01*
X10233491Y4100016D01*
X10298232Y4119483D01*
X10357554Y4151928D01*
X10388852Y4178300D01*
X10575766Y4178300D01*
X10587196Y4117340D01*
X10612438Y4099481D01*
X10659586Y4093527D01*
X10833894Y4093527D01*
X10904051Y4100016D01*
X10968792Y4119483D01*
X11028114Y4151928D01*
X11082020Y4197350D01*
X11126817Y4251851D01*
X11158815Y4311531D01*
X11178014Y4376390D01*
X11184414Y4446429D01*
X11177865Y4516199D01*
X11158220Y4580255D01*
X11125478Y4638596D01*
X11079639Y4691221D01*
X11025168Y4734768D01*
X10966529Y4765873D01*
X10903724Y4784536D01*
X10836751Y4790757D01*
X10660539Y4791710D01*
X10611485Y4785281D01*
X10586244Y4765992D01*
X10577195Y4741228D01*
X10575766Y4707890D01*
X10575766Y4178300D01*
X10388852Y4178300D01*
X10411460Y4197350D01*
X10456257Y4251851D01*
X10488255Y4311531D01*
X10507454Y4376390D01*
X10513854Y4446429D01*
X10507305Y4516199D01*
X10487660Y4580255D01*
X10454918Y4638596D01*
X10409079Y4691221D01*
X10354608Y4734768D01*
X10295969Y4765873D01*
X10233164Y4784536D01*
X10166191Y4790757D01*
X9989979Y4791710D01*
X9940925Y4785281D01*
X9915684Y4765992D01*
X9906635Y4741228D01*
X9905206Y4707890D01*
X9905206Y4178300D01*
X9594419Y4178300D01*
X9838531Y4673600D01*
X9852819Y4719320D01*
X9838769Y4751229D01*
X9796621Y4780280D01*
X9740424Y4796473D01*
X9698514Y4770755D01*
X9685179Y4742180D01*
X9494679Y4324985D01*
X9484320Y4347012D01*
X9460865Y4397851D01*
X9429909Y4465122D01*
X9397047Y4536440D01*
X9364305Y4607758D01*
X9333706Y4675029D01*
X9309775Y4727416D01*
X9297035Y4754086D01*
X9281319Y4779328D01*
X9265126Y4792663D01*
X9239885Y4796473D01*
X9191784Y4780280D01*
X9149636Y4751229D01*
X9135586Y4719320D01*
X8937149Y4719320D01*
X8937149Y4994910D01*
X9135586Y4994910D01*
X11184414Y4994910D01*
X11382851Y4994910D01*
X11382851Y3895090D01*
G37*
D11*
%TO.C,R1*%
X-2427500Y4047258D02*
X-2427500Y3572742D01*
X-1382500Y4047258D02*
X-1382500Y3572742D01*
%TO.C,C1*%
X3050000Y-2185580D02*
X3050000Y-1904420D01*
X2030000Y-2185580D02*
X2030000Y-1904420D01*
%TO.C,R2*%
X-3572742Y1792500D02*
X-4047258Y1792500D01*
X-3572742Y747500D02*
X-4047258Y747500D01*
%TO.C,R5*%
X-1317258Y-3697500D02*
X-842742Y-3697500D01*
X-1317258Y-2652500D02*
X-842742Y-2652500D01*
%TO.C,C2*%
X6350580Y510000D02*
X6069420Y510000D01*
X6350580Y-510000D02*
X6069420Y-510000D01*
%TO.C,R3*%
X2017500Y2332258D02*
X2017500Y1857742D01*
X3062500Y2332258D02*
X3062500Y1857742D01*
%TO.C,R4*%
X-4047258Y-1792500D02*
X-3572742Y-1792500D01*
X-4047258Y-747500D02*
X-3572742Y-747500D01*
%TO.C,C4*%
X-1270580Y-5590000D02*
X-989420Y-5590000D01*
X-1270580Y-4570000D02*
X-989420Y-4570000D01*
%TO.C,D1*%
X5715000Y980000D02*
X6515000Y980000D01*
X5715000Y980000D02*
X4915000Y980000D01*
X5715000Y4100000D02*
X6515000Y4100000D01*
X5715000Y4100000D02*
X3915000Y4100000D01*
%TO.C,U1*%
X-1560000Y0D02*
X-1560000Y-800000D01*
X-1560000Y0D02*
X-1560000Y800000D01*
X1560000Y0D02*
X1560000Y-800000D01*
X1560000Y0D02*
X1560000Y1800000D01*
%TO.C,C3*%
X510000Y3669420D02*
X510000Y3950580D01*
X-510000Y3669420D02*
X-510000Y3950580D01*
%TD*%
M02*
