%TF.GenerationSoftware,KiCad,Pcbnew,7.0.9*%
%TF.CreationDate,2024-01-09T19:27:13+00:00*%
%TF.ProjectId,OPA990 Breakout,4f504139-3930-4204-9272-65616b6f7574,V24.01.0.1*%
%TF.SameCoordinates,PX8c7ecc0PY5c0c740*%
%TF.FileFunction,Copper,L1,Top*%
%TF.FilePolarity,Positive*%
%FSLAX46Y46*%
G04 Gerber Fmt 4.6, Leading zero omitted, Abs format (unit mm)*
G04 Created by KiCad (PCBNEW 7.0.9) date 2024-01-09 19:27:13*
%MOMM*%
%LPD*%
G01*
G04 APERTURE LIST*
G04 Aperture macros list*
%AMRoundRect*
0 Rectangle with rounded corners*
0 $1 Rounding radius*
0 $2 $3 $4 $5 $6 $7 $8 $9 X,Y pos of 4 corners*
0 Add a 4 corners polygon primitive as box body*
4,1,4,$2,$3,$4,$5,$6,$7,$8,$9,$2,$3,0*
0 Add four circle primitives for the rounded corners*
1,1,$1+$1,$2,$3*
1,1,$1+$1,$4,$5*
1,1,$1+$1,$6,$7*
1,1,$1+$1,$8,$9*
0 Add four rect primitives between the rounded corners*
20,1,$1+$1,$2,$3,$4,$5,0*
20,1,$1+$1,$4,$5,$6,$7,0*
20,1,$1+$1,$6,$7,$8,$9,0*
20,1,$1+$1,$8,$9,$2,$3,0*%
G04 Aperture macros list end*
%TA.AperFunction,SMDPad,CuDef*%
%ADD10RoundRect,0.200000X-0.275000X0.200000X-0.275000X-0.200000X0.275000X-0.200000X0.275000X0.200000X0*%
%TD*%
%TA.AperFunction,SMDPad,CuDef*%
%ADD11RoundRect,0.225000X0.250000X-0.225000X0.250000X0.225000X-0.250000X0.225000X-0.250000X-0.225000X0*%
%TD*%
%TA.AperFunction,SMDPad,CuDef*%
%ADD12RoundRect,0.200000X0.200000X0.275000X-0.200000X0.275000X-0.200000X-0.275000X0.200000X-0.275000X0*%
%TD*%
%TA.AperFunction,SMDPad,CuDef*%
%ADD13RoundRect,0.200000X-0.200000X-0.275000X0.200000X-0.275000X0.200000X0.275000X-0.200000X0.275000X0*%
%TD*%
%TA.AperFunction,SMDPad,CuDef*%
%ADD14RoundRect,0.225000X0.225000X0.250000X-0.225000X0.250000X-0.225000X-0.250000X0.225000X-0.250000X0*%
%TD*%
%TA.AperFunction,SMDPad,CuDef*%
%ADD15RoundRect,0.225000X-0.225000X-0.250000X0.225000X-0.250000X0.225000X0.250000X-0.225000X0.250000X0*%
%TD*%
%TA.AperFunction,SMDPad,CuDef*%
%ADD16RoundRect,0.150000X-0.512500X-0.150000X0.512500X-0.150000X0.512500X0.150000X-0.512500X0.150000X0*%
%TD*%
%TA.AperFunction,SMDPad,CuDef*%
%ADD17RoundRect,0.150000X-0.150000X0.512500X-0.150000X-0.512500X0.150000X-0.512500X0.150000X0.512500X0*%
%TD*%
%TA.AperFunction,ComponentPad*%
%ADD18O,1.700000X1.700000*%
%TD*%
%TA.AperFunction,ComponentPad*%
%ADD19R,1.700000X1.700000*%
%TD*%
%TA.AperFunction,ViaPad*%
%ADD20C,0.700000*%
%TD*%
%TA.AperFunction,Conductor*%
%ADD21C,0.500000*%
%TD*%
%TA.AperFunction,Conductor*%
%ADD22C,0.300000*%
%TD*%
G04 APERTURE END LIST*
D10*
%TO.P,R1,2*%
%TO.N,/IN+*%
X-1905000Y2985000D03*
%TO.P,R1,1*%
%TO.N,GND*%
X-1905000Y4635000D03*
%TD*%
D11*
%TO.P,C1,2*%
%TO.N,VDD*%
X2540000Y-1270000D03*
%TO.P,C1,1*%
%TO.N,GND*%
X2540000Y-2820000D03*
%TD*%
D12*
%TO.P,R2,2*%
%TO.N,Net-(J1-Pin_1)*%
X-4635000Y1270000D03*
%TO.P,R2,1*%
%TO.N,/IN+*%
X-2985000Y1270000D03*
%TD*%
D13*
%TO.P,R5,2*%
%TO.N,/OUT*%
X-255000Y-3175000D03*
%TO.P,R5,1*%
%TO.N,/IN-*%
X-1905000Y-3175000D03*
%TD*%
D14*
%TO.P,C2,2*%
%TO.N,GND*%
X5435000Y0D03*
%TO.P,C2,1*%
%TO.N,Net-(D1A-COM)*%
X6985000Y0D03*
%TD*%
D10*
%TO.P,R3,2*%
%TO.N,/OUT*%
X2540000Y1270000D03*
%TO.P,R3,1*%
%TO.N,Net-(D1A-COM)*%
X2540000Y2920000D03*
%TD*%
D13*
%TO.P,R4,2*%
%TO.N,/IN-*%
X-2985000Y-1270000D03*
%TO.P,R4,1*%
%TO.N,Net-(J1-Pin_3)*%
X-4635000Y-1270000D03*
%TD*%
D15*
%TO.P,C4,2*%
%TO.N,/OUT*%
X-355000Y-5080000D03*
%TO.P,C4,1*%
%TO.N,/IN-*%
X-1905000Y-5080000D03*
%TD*%
D16*
%TO.P,D1,3,COM*%
%TO.N,Net-(D1A-COM)*%
X6852500Y2540000D03*
%TO.P,D1,2,K*%
%TO.N,VIO*%
X4577500Y1590000D03*
%TO.P,D1,1,A*%
%TO.N,GND*%
X4577500Y3490000D03*
%TD*%
D17*
%TO.P,U1,5,V+*%
%TO.N,VDD*%
X950000Y-1137500D03*
%TO.P,U1,4,-*%
%TO.N,/IN-*%
X-950000Y-1137500D03*
%TO.P,U1,3,+*%
%TO.N,/IN+*%
X-950000Y1137500D03*
%TO.P,U1,2,V-*%
%TO.N,VSS*%
X0Y1137500D03*
%TO.P,U1,1*%
%TO.N,/OUT*%
X950000Y1137500D03*
%TD*%
D11*
%TO.P,C3,2*%
%TO.N,GND*%
X0Y4585000D03*
%TO.P,C3,1*%
%TO.N,VSS*%
X0Y3035000D03*
%TD*%
D18*
%TO.P,J1,3,Pin_3*%
%TO.N,Net-(J1-Pin_3)*%
X-7620000Y-2540000D03*
%TO.P,J1,2,Pin_2*%
%TO.N,VIO*%
X-7620000Y0D03*
D19*
%TO.P,J1,1,Pin_1*%
%TO.N,Net-(J1-Pin_1)*%
X-7620000Y2540000D03*
%TD*%
D18*
%TO.P,J2,3,Pin_3*%
%TO.N,VSS*%
X10160000Y-2540000D03*
%TO.P,J2,2,Pin_2*%
%TO.N,Net-(D1A-COM)*%
X10160000Y0D03*
D19*
%TO.P,J2,1,Pin_1*%
%TO.N,VDD*%
X10160000Y2540000D03*
%TD*%
D20*
%TO.N,GND*%
X8255000Y1270000D03*
X7620000Y-5080000D03*
X-5080000Y-3810000D03*
X1397000Y-5334000D03*
X-5207000Y3302000D03*
X-3810000Y-254000D03*
%TO.N,VSS*%
X889000Y3048000D03*
%TO.N,VDD*%
X3429000Y-1270000D03*
%TO.N,GND*%
X0Y5461000D03*
X5461000Y-889000D03*
X3429000Y-2794000D03*
X-1905000Y5461000D03*
X4699000Y-2540000D03*
X4572000Y4572000D03*
%TO.N,VIO*%
X3556000Y1016000D03*
%TD*%
D21*
%TO.N,VSS*%
X0Y1137500D02*
X0Y3035000D01*
X876000Y3035000D02*
X889000Y3048000D01*
X0Y3035000D02*
X876000Y3035000D01*
%TO.N,VDD*%
X2540000Y-1270000D02*
X3429000Y-1270000D01*
X1082500Y-1270000D02*
X950000Y-1137500D01*
X2540000Y-1270000D02*
X1082500Y-1270000D01*
D22*
%TO.N,/OUT*%
X950000Y1137500D02*
X2407500Y1137500D01*
X762000Y0D02*
X381000Y0D01*
X950000Y188000D02*
X762000Y0D01*
X950000Y1137500D02*
X950000Y188000D01*
X-355000Y-5080000D02*
X-355000Y-3275000D01*
X0Y-381000D02*
X0Y-1905000D01*
X-255000Y-2160000D02*
X-255000Y-3175000D01*
X0Y-1905000D02*
X-255000Y-2160000D01*
X-355000Y-3275000D02*
X-255000Y-3175000D01*
X381000Y0D02*
X0Y-381000D01*
X2407500Y1137500D02*
X2540000Y1270000D01*
%TO.N,/IN+*%
X-2985000Y1270000D02*
X-1905000Y1270000D01*
X-1082500Y1270000D02*
X-950000Y1137500D01*
X-1905000Y1270000D02*
X-1082500Y1270000D01*
X-1905000Y2985000D02*
X-1905000Y1270000D01*
%TO.N,/IN-*%
X-1082500Y-1270000D02*
X-950000Y-1137500D01*
X-1905000Y-1270000D02*
X-1082500Y-1270000D01*
X-1905000Y-3175000D02*
X-1905000Y-1270000D01*
X-1905000Y-5080000D02*
X-1905000Y-3175000D01*
X-2985000Y-1270000D02*
X-1905000Y-1270000D01*
D21*
%TO.N,GND*%
X3403000Y-2820000D02*
X3429000Y-2794000D01*
D22*
X5435000Y-863000D02*
X5461000Y-889000D01*
X4577500Y4566500D02*
X4572000Y4572000D01*
D21*
X-1905000Y4635000D02*
X-1905000Y5461000D01*
X0Y4585000D02*
X0Y5461000D01*
D22*
X5435000Y0D02*
X5435000Y-863000D01*
D21*
X2540000Y-2820000D02*
X3403000Y-2820000D01*
D22*
X4577500Y3490000D02*
X4577500Y4566500D01*
%TO.N,Net-(J1-Pin_1)*%
X-5905000Y2540000D02*
X-4635000Y1270000D01*
X-7620000Y2540000D02*
X-5905000Y2540000D01*
%TO.N,Net-(J1-Pin_3)*%
X-5905000Y-2540000D02*
X-4635000Y-1270000D01*
X-7620000Y-2540000D02*
X-5905000Y-2540000D01*
D21*
%TO.N,VIO*%
X4003500Y1016000D02*
X4577500Y1590000D01*
X3556000Y1016000D02*
X4003500Y1016000D01*
D22*
%TO.N,Net-(D1A-COM)*%
X3683000Y2540000D02*
X6852500Y2540000D01*
X3303000Y2920000D02*
X3683000Y2540000D01*
X6852500Y2540000D02*
X6852500Y132500D01*
X6985000Y0D02*
X10160000Y0D01*
X2540000Y2920000D02*
X3303000Y2920000D01*
X6852500Y132500D02*
X6985000Y0D01*
%TD*%
M02*
