%TF.GenerationSoftware,KiCad,Pcbnew,7.0.9*%
%TF.CreationDate,2024-01-09T19:27:16+00:00*%
%TF.ProjectId,OPA990 Breakout,4f504139-3930-4204-9272-65616b6f7574,V24.01.0.1*%
%TF.SameCoordinates,PX8c7ecc0PY5c0c740*%
%TF.FileFunction,Drillmap*%
%TF.FilePolarity,Positive*%
%FSLAX45Y45*%
G04 Gerber Fmt 4.5, Leading zero omitted, Abs format (unit mm)*
G04 Created by KiCad (PCBNEW 7.0.9) date 2024-01-09 19:27:16*
%MOMM*%
%LPD*%
G01*
G04 APERTURE LIST*
%ADD10C,0.100000*%
%ADD11C,0.200000*%
G04 APERTURE END LIST*
D10*
X1079500Y635000D02*
X-825500Y635000D01*
X-952500Y508000D02*
X-952500Y-508000D01*
X1079500Y-635000D02*
G75*
G03*
X1206500Y-508000I0J127000D01*
G01*
X1206500Y508000D02*
G75*
G03*
X1079500Y635000I-127000J0D01*
G01*
X-952500Y-508000D02*
G75*
G03*
X-825500Y-635000I127000J0D01*
G01*
X1206500Y508000D02*
X1206500Y-508000D01*
X1079500Y-635000D02*
X-825500Y-635000D01*
X-825500Y635000D02*
G75*
G03*
X-952500Y508000I0J-127000D01*
G01*
D11*
X-696723Y-951484D02*
X-696723Y-751484D01*
X-696723Y-751484D02*
X-649104Y-751484D01*
X-649104Y-751484D02*
X-620533Y-761008D01*
X-620533Y-761008D02*
X-601485Y-780055D01*
X-601485Y-780055D02*
X-591961Y-799103D01*
X-591961Y-799103D02*
X-582438Y-837198D01*
X-582438Y-837198D02*
X-582438Y-865769D01*
X-582438Y-865769D02*
X-591961Y-903865D01*
X-591961Y-903865D02*
X-601485Y-922912D01*
X-601485Y-922912D02*
X-620533Y-941960D01*
X-620533Y-941960D02*
X-649104Y-951484D01*
X-649104Y-951484D02*
X-696723Y-951484D01*
X-496723Y-951484D02*
X-496723Y-818150D01*
X-496723Y-856246D02*
X-487199Y-837198D01*
X-487199Y-837198D02*
X-477676Y-827674D01*
X-477676Y-827674D02*
X-458628Y-818150D01*
X-458628Y-818150D02*
X-439580Y-818150D01*
X-372914Y-951484D02*
X-372914Y-818150D01*
X-372914Y-751484D02*
X-382437Y-761008D01*
X-382437Y-761008D02*
X-372914Y-770531D01*
X-372914Y-770531D02*
X-363390Y-761008D01*
X-363390Y-761008D02*
X-372914Y-751484D01*
X-372914Y-751484D02*
X-372914Y-770531D01*
X-249104Y-951484D02*
X-268152Y-941960D01*
X-268152Y-941960D02*
X-277676Y-922912D01*
X-277676Y-922912D02*
X-277676Y-751484D01*
X-144342Y-951484D02*
X-163390Y-941960D01*
X-163390Y-941960D02*
X-172914Y-922912D01*
X-172914Y-922912D02*
X-172914Y-751484D01*
X84229Y-951484D02*
X84229Y-751484D01*
X84229Y-751484D02*
X150896Y-894341D01*
X150896Y-894341D02*
X217562Y-751484D01*
X217562Y-751484D02*
X217562Y-951484D01*
X398515Y-951484D02*
X398515Y-846722D01*
X398515Y-846722D02*
X388991Y-827674D01*
X388991Y-827674D02*
X369943Y-818150D01*
X369943Y-818150D02*
X331848Y-818150D01*
X331848Y-818150D02*
X312801Y-827674D01*
X398515Y-941960D02*
X379467Y-951484D01*
X379467Y-951484D02*
X331848Y-951484D01*
X331848Y-951484D02*
X312801Y-941960D01*
X312801Y-941960D02*
X303277Y-922912D01*
X303277Y-922912D02*
X303277Y-903865D01*
X303277Y-903865D02*
X312801Y-884817D01*
X312801Y-884817D02*
X331848Y-875293D01*
X331848Y-875293D02*
X379467Y-875293D01*
X379467Y-875293D02*
X398515Y-865769D01*
X493753Y-818150D02*
X493753Y-1018150D01*
X493753Y-827674D02*
X512801Y-818150D01*
X512801Y-818150D02*
X550896Y-818150D01*
X550896Y-818150D02*
X569944Y-827674D01*
X569944Y-827674D02*
X579467Y-837198D01*
X579467Y-837198D02*
X588991Y-856246D01*
X588991Y-856246D02*
X588991Y-913388D01*
X588991Y-913388D02*
X579467Y-932436D01*
X579467Y-932436D02*
X569944Y-941960D01*
X569944Y-941960D02*
X550896Y-951484D01*
X550896Y-951484D02*
X512801Y-951484D01*
X512801Y-951484D02*
X493753Y-941960D01*
X674705Y-932436D02*
X684229Y-941960D01*
X684229Y-941960D02*
X674705Y-951484D01*
X674705Y-951484D02*
X665182Y-941960D01*
X665182Y-941960D02*
X674705Y-932436D01*
X674705Y-932436D02*
X674705Y-951484D01*
X674705Y-827674D02*
X684229Y-837198D01*
X684229Y-837198D02*
X674705Y-846722D01*
X674705Y-846722D02*
X665182Y-837198D01*
X665182Y-837198D02*
X674705Y-827674D01*
X674705Y-827674D02*
X674705Y-846722D01*
M02*
