%TF.GenerationSoftware,KiCad,Pcbnew,7.0.9*%
%TF.CreationDate,2024-01-09T19:27:13+00:00*%
%TF.ProjectId,OPA990 Breakout,4f504139-3930-4204-9272-65616b6f7574,V24.01.0.1*%
%TF.SameCoordinates,PX8c7ecc0PY5c0c740*%
%TF.FileFunction,Legend,Bot*%
%TF.FilePolarity,Positive*%
%FSLAX46Y46*%
G04 Gerber Fmt 4.6, Leading zero omitted, Abs format (unit mm)*
G04 Created by KiCad (PCBNEW 7.0.9) date 2024-01-09 19:27:13*
%MOMM*%
%LPD*%
G01*
G04 APERTURE LIST*
%ADD10C,0.150000*%
%ADD11C,0.120000*%
%ADD12C,0.001000*%
%ADD13C,0.254500*%
G04 APERTURE END LIST*
D10*
X-7420000Y4775229D02*
X-7420000Y4346658D01*
X-7420000Y4346658D02*
X-7391429Y4260943D01*
X-7391429Y4260943D02*
X-7334286Y4203800D01*
X-7334286Y4203800D02*
X-7248572Y4175229D01*
X-7248572Y4175229D02*
X-7191429Y4175229D01*
X-8020000Y4175229D02*
X-7677143Y4175229D01*
X-7848572Y4175229D02*
X-7848572Y4775229D01*
X-7848572Y4775229D02*
X-7791429Y4689515D01*
X-7791429Y4689515D02*
X-7734286Y4632372D01*
X-7734286Y4632372D02*
X-7677143Y4603800D01*
X7358000Y-685771D02*
X7358000Y-1114342D01*
X7358000Y-1114342D02*
X7386571Y-1200057D01*
X7386571Y-1200057D02*
X7443714Y-1257200D01*
X7443714Y-1257200D02*
X7529428Y-1285771D01*
X7529428Y-1285771D02*
X7586571Y-1285771D01*
X7072285Y-1285771D02*
X7072285Y-685771D01*
X7072285Y-685771D02*
X6843714Y-685771D01*
X6843714Y-685771D02*
X6786571Y-714342D01*
X6786571Y-714342D02*
X6758000Y-742914D01*
X6758000Y-742914D02*
X6729428Y-800057D01*
X6729428Y-800057D02*
X6729428Y-885771D01*
X6729428Y-885771D02*
X6758000Y-942914D01*
X6758000Y-942914D02*
X6786571Y-971485D01*
X6786571Y-971485D02*
X6843714Y-1000057D01*
X6843714Y-1000057D02*
X7072285Y-1000057D01*
X6500857Y-742914D02*
X6472285Y-714342D01*
X6472285Y-714342D02*
X6415143Y-685771D01*
X6415143Y-685771D02*
X6272285Y-685771D01*
X6272285Y-685771D02*
X6215143Y-714342D01*
X6215143Y-714342D02*
X6186571Y-742914D01*
X6186571Y-742914D02*
X6158000Y-800057D01*
X6158000Y-800057D02*
X6158000Y-857200D01*
X6158000Y-857200D02*
X6186571Y-942914D01*
X6186571Y-942914D02*
X6529428Y-1285771D01*
X6529428Y-1285771D02*
X6158000Y-1285771D01*
X6760000Y4394229D02*
X6760000Y3965658D01*
X6760000Y3965658D02*
X6788571Y3879943D01*
X6788571Y3879943D02*
X6845714Y3822800D01*
X6845714Y3822800D02*
X6931428Y3794229D01*
X6931428Y3794229D02*
X6988571Y3794229D01*
X6474285Y3794229D02*
X6474285Y4394229D01*
X6474285Y4394229D02*
X6245714Y4394229D01*
X6245714Y4394229D02*
X6188571Y4365658D01*
X6188571Y4365658D02*
X6160000Y4337086D01*
X6160000Y4337086D02*
X6131428Y4279943D01*
X6131428Y4279943D02*
X6131428Y4194229D01*
X6131428Y4194229D02*
X6160000Y4137086D01*
X6160000Y4137086D02*
X6188571Y4108515D01*
X6188571Y4108515D02*
X6245714Y4079943D01*
X6245714Y4079943D02*
X6474285Y4079943D01*
X5560000Y3794229D02*
X5902857Y3794229D01*
X5731428Y3794229D02*
X5731428Y4394229D01*
X5731428Y4394229D02*
X5788571Y4308515D01*
X5788571Y4308515D02*
X5845714Y4251372D01*
X5845714Y4251372D02*
X5902857Y4222800D01*
X10360000Y4775229D02*
X10360000Y4346658D01*
X10360000Y4346658D02*
X10388571Y4260943D01*
X10388571Y4260943D02*
X10445714Y4203800D01*
X10445714Y4203800D02*
X10531428Y4175229D01*
X10531428Y4175229D02*
X10588571Y4175229D01*
X10102857Y4718086D02*
X10074285Y4746658D01*
X10074285Y4746658D02*
X10017143Y4775229D01*
X10017143Y4775229D02*
X9874285Y4775229D01*
X9874285Y4775229D02*
X9817143Y4746658D01*
X9817143Y4746658D02*
X9788571Y4718086D01*
X9788571Y4718086D02*
X9760000Y4660943D01*
X9760000Y4660943D02*
X9760000Y4603800D01*
X9760000Y4603800D02*
X9788571Y4518086D01*
X9788571Y4518086D02*
X10131428Y4175229D01*
X10131428Y4175229D02*
X9760000Y4175229D01*
D11*
%TO.C,J1*%
X-8950000Y1270000D02*
X-8950000Y-3870000D01*
X-6290000Y3870000D02*
X-7620000Y3870000D01*
X-6290000Y2540000D02*
X-6290000Y3870000D01*
X-6290000Y1270000D02*
X-8950000Y1270000D01*
X-6290000Y1270000D02*
X-6290000Y-3870000D01*
X-6290000Y-3870000D02*
X-8950000Y-3870000D01*
%TO.C,kibuzzard-659D8E71*%
G36*
X715804Y76517D02*
G01*
X517366Y76517D01*
X183991Y76517D01*
X-536099Y76517D01*
X-1611471Y76517D01*
X-2094389Y76517D01*
X-3057843Y76517D01*
X-3506946Y76517D01*
X-3819366Y76517D01*
X-4017804Y76517D01*
X-4017804Y908368D01*
X-3819366Y908368D01*
X-3797459Y857885D01*
X-3591719Y550227D01*
X-3591719Y368300D01*
X-3590290Y335439D01*
X-3581241Y310197D01*
X-3555524Y290195D01*
X-3506946Y284480D01*
X-3458369Y290195D01*
X-3432651Y310674D01*
X-3423603Y336391D01*
X-3422818Y354965D01*
X-3165951Y354965D01*
X-3151188Y321627D01*
X-3106896Y294005D01*
X-3057843Y280670D01*
X-3027363Y289719D01*
X-3009741Y308292D01*
X-2997253Y335492D01*
X-2972488Y392959D01*
X-2935446Y480695D01*
X-2905919Y478790D01*
X-2785904Y478790D01*
X-2785904Y371157D01*
X-2784475Y338296D01*
X-2775426Y313055D01*
X-2750185Y293767D01*
X-2701131Y287337D01*
X-2648267Y296148D01*
X-2623026Y322580D01*
X-2617311Y372110D01*
X-2617311Y899795D01*
X-2555399Y899795D01*
X-2549684Y851218D01*
X-2529681Y825976D01*
X-2504440Y817404D01*
X-2470626Y815975D01*
X-2179161Y815975D01*
X-2179161Y719772D01*
X-2366804Y719772D01*
X-2400617Y718344D01*
X-2425859Y709295D01*
X-2444432Y683339D01*
X-2450624Y634047D01*
X-2441575Y580946D01*
X-2414429Y554990D01*
X-2365851Y550227D01*
X-2179161Y550227D01*
X-2179161Y370205D01*
X-2177732Y336867D01*
X-2168684Y312102D01*
X-2143443Y292814D01*
X-2094389Y286385D01*
X-2041525Y295434D01*
X-2016284Y322580D01*
X-2010681Y370205D01*
X-1693386Y370205D01*
X-1684338Y318056D01*
X-1657191Y293052D01*
X-1611471Y287337D01*
X-1567656Y292100D01*
X-1542891Y303530D01*
X-1529556Y322580D01*
X-1524794Y372110D01*
X-1524794Y691198D01*
X-1495504Y652978D01*
X-1455261Y597376D01*
X-1417876Y545108D01*
X-1397159Y516890D01*
X-1380014Y494506D01*
X-1356678Y477361D01*
X-1316672Y466408D01*
X-1277620Y476409D01*
X-1252379Y495935D01*
X-1244759Y506412D01*
X-1216422Y543679D01*
X-1169511Y607854D01*
X-1126173Y667504D01*
X-1108551Y691198D01*
X-1108551Y370205D01*
X-1107122Y337344D01*
X-1098074Y313055D01*
X-1072356Y293767D01*
X-1023779Y287337D01*
X-976630Y293767D01*
X-951389Y313055D01*
X-942340Y337820D01*
X-940911Y372110D01*
X-940911Y638334D01*
X-878999Y638334D01*
X-872807Y565646D01*
X-854234Y498554D01*
X-823277Y437059D01*
X-779939Y381159D01*
X-727551Y334695D01*
X-669449Y301506D01*
X-605631Y281593D01*
X-536099Y274955D01*
X-466417Y281503D01*
X-402153Y301149D01*
X-343307Y333891D01*
X-289877Y379730D01*
X-245497Y434618D01*
X-213797Y494506D01*
X-194776Y559395D01*
X-188436Y629285D01*
X-195580Y705842D01*
X-217011Y777399D01*
X-250349Y840859D01*
X-293211Y893128D01*
X-321297Y915988D01*
X-150336Y915988D01*
X-145574Y876459D01*
X-129381Y855980D01*
X-80804Y847408D01*
X101124Y847408D01*
X101124Y368300D01*
X102553Y335915D01*
X111125Y311626D01*
X136366Y292100D01*
X183991Y286385D01*
X231140Y292100D01*
X255905Y311626D01*
X264478Y336391D01*
X265906Y369253D01*
X265906Y847408D01*
X448786Y847408D01*
X493554Y854551D01*
X512604Y876935D01*
X517366Y916940D01*
X512604Y956469D01*
X496411Y976948D01*
X447834Y985520D01*
X-81756Y985520D01*
X-126524Y978376D01*
X-145574Y955992D01*
X-150336Y915988D01*
X-321297Y915988D01*
X-344408Y934799D01*
X-402749Y966470D01*
X-465614Y986472D01*
X-530384Y993140D01*
X-598547Y986770D01*
X-662067Y967661D01*
X-720943Y935811D01*
X-775176Y891222D01*
X-820599Y837198D01*
X-853043Y777042D01*
X-872510Y710754D01*
X-878999Y638334D01*
X-940911Y638334D01*
X-940911Y900747D01*
X-942340Y933609D01*
X-951389Y958850D01*
X-977106Y977424D01*
X-1025684Y983615D01*
X-1069975Y977424D01*
X-1094264Y964565D01*
X-1099979Y958850D01*
X-1316196Y675005D01*
X-1376661Y754901D01*
X-1428515Y823138D01*
X-1471759Y879716D01*
X-1506391Y924636D01*
X-1532414Y957898D01*
X-1559679Y977186D01*
X-1609090Y983615D01*
X-1657787Y977186D01*
X-1682909Y957898D01*
X-1691958Y932180D01*
X-1693386Y898843D01*
X-1693386Y370205D01*
X-2010681Y370205D01*
X-2010569Y371157D01*
X-2010569Y900747D01*
X-2028666Y966946D01*
X-2097246Y984567D01*
X-2472531Y984567D01*
X-2505393Y983139D01*
X-2530157Y974090D01*
X-2549684Y948372D01*
X-2555399Y899795D01*
X-2617311Y899795D01*
X-2617311Y900747D01*
X-2618740Y933609D01*
X-2627789Y958850D01*
X-2653030Y978138D01*
X-2702084Y984567D01*
X-2907824Y984567D01*
X-2963175Y977794D01*
X-3017467Y957474D01*
X-3070701Y923608D01*
X-3105467Y888841D01*
X-3133566Y843598D01*
X-3152140Y790257D01*
X-3158331Y731202D01*
X-3150394Y663681D01*
X-3126581Y604626D01*
X-3086894Y554037D01*
X-3103404Y514985D01*
X-3124994Y465138D01*
X-3151664Y404495D01*
X-3165951Y354965D01*
X-3422818Y354965D01*
X-3422174Y370205D01*
X-3422174Y550227D01*
X-3216434Y857885D01*
X-3194526Y908368D01*
X-3205004Y938252D01*
X-3236436Y966946D01*
X-3296444Y995045D01*
X-3325019Y987425D01*
X-3359309Y948372D01*
X-3506946Y712152D01*
X-3654584Y948372D01*
X-3686016Y985996D01*
X-3716973Y995045D01*
X-3772694Y971233D01*
X-3807698Y939324D01*
X-3819366Y908368D01*
X-4017804Y908368D01*
X-4017804Y1193483D01*
X-3819366Y1193483D01*
X517366Y1193483D01*
X715804Y1193483D01*
X715804Y76517D01*
G37*
G36*
X-468947Y811332D02*
G01*
X-411321Y771684D01*
X-381159Y732896D01*
X-363061Y687017D01*
X-357029Y634047D01*
X-363114Y581078D01*
X-381370Y535199D01*
X-411797Y496411D01*
X-469781Y456763D01*
X-534194Y443547D01*
X-598487Y456406D01*
X-656114Y494982D01*
X-686276Y533188D01*
X-704374Y579226D01*
X-710406Y633095D01*
X-704321Y687070D01*
X-686065Y733425D01*
X-655637Y772160D01*
X-597654Y811451D01*
X-533241Y824548D01*
X-468947Y811332D01*
G37*
G36*
X-2785904Y647382D02*
G01*
X-2907824Y647382D01*
X-2963069Y668337D01*
X-2990691Y731202D01*
X-2963069Y794544D01*
X-2905919Y815975D01*
X-2785904Y815975D01*
X-2785904Y647382D01*
G37*
%TO.C,REF\u002A\u002A*%
D12*
X-2057400Y-4445000D02*
X-3302000Y-4445000D01*
X-3302000Y-3937000D01*
X-2057400Y-3937000D01*
X-2057400Y-4445000D01*
G36*
X-2057400Y-4445000D02*
G01*
X-3302000Y-4445000D01*
X-3302000Y-3937000D01*
X-2057400Y-3937000D01*
X-2057400Y-4445000D01*
G37*
D13*
X-3174750Y-4191000D02*
G75*
G03*
X-3174750Y-4191000I-127250J0D01*
G01*
%TO.C,kibuzzard-659D8DDF*%
G36*
X306546Y2615565D02*
G01*
X108109Y2615565D01*
X24289Y2615565D01*
X-959644Y2615565D01*
X-1548289Y2615565D01*
X-1935956Y2615565D01*
X-2517934Y2615565D01*
X-3071336Y2615565D01*
X-3156109Y2615565D01*
X-3354546Y2615565D01*
X-3354546Y2909252D01*
X-3156109Y2909252D01*
X-3154680Y2876391D01*
X-3145631Y2851150D01*
X-3120390Y2831862D01*
X-3071336Y2825432D01*
X-3023473Y2831624D01*
X-2997994Y2850197D01*
X-2988945Y2876391D01*
X-2987516Y2911157D01*
X-2987516Y3175000D01*
X-2782729Y3175000D01*
X-2778085Y3093264D01*
X-2764155Y3020457D01*
X-2740938Y2956580D01*
X-2708434Y2901632D01*
X-2675453Y2866866D01*
X-2631757Y2838767D01*
X-2578775Y2820194D01*
X-2517934Y2814002D01*
X-2456855Y2820313D01*
X-2403158Y2839244D01*
X-2358628Y2867462D01*
X-2325053Y2901632D01*
X-2299454Y2942352D01*
X-2278856Y2990215D01*
X-2263510Y3047259D01*
X-2263211Y3049270D01*
X-2203609Y3049270D01*
X-2195142Y2985294D01*
X-2169742Y2929255D01*
X-2127409Y2881154D01*
X-2072270Y2844377D01*
X-2008452Y2822310D01*
X-1935956Y2814955D01*
X-1863990Y2822363D01*
X-1800490Y2844588D01*
X-1745456Y2881630D01*
X-1720055Y2909729D01*
X-1634014Y2909729D01*
X-1627822Y2861627D01*
X-1607344Y2836862D01*
X-1548289Y2825432D01*
X-1175861Y2825432D01*
X-1116806Y2851150D01*
X-1092041Y2911157D01*
X-1044416Y2911157D01*
X-1035606Y2858294D01*
X-1009174Y2833052D01*
X-959644Y2827337D01*
X-582454Y2827337D01*
X-529590Y2836386D01*
X-504349Y2863532D01*
X-498634Y2912110D01*
X-498634Y3440747D01*
X-436721Y3440747D01*
X-431006Y3392170D01*
X-411004Y3366929D01*
X-385762Y3358356D01*
X-351949Y3356927D01*
X-60484Y3356927D01*
X-60484Y3260725D01*
X-248126Y3260725D01*
X-281940Y3259296D01*
X-307181Y3250247D01*
X-325755Y3224292D01*
X-331946Y3175000D01*
X-322897Y3121898D01*
X-295751Y3095942D01*
X-247174Y3091180D01*
X-60484Y3091180D01*
X-60484Y2911157D01*
X-59055Y2877820D01*
X-50006Y2853055D01*
X-24765Y2833767D01*
X24289Y2827337D01*
X77153Y2836386D01*
X102394Y2863532D01*
X108109Y2912110D01*
X108109Y3441700D01*
X90011Y3507899D01*
X21431Y3525520D01*
X-353854Y3525520D01*
X-386715Y3524091D01*
X-411480Y3515042D01*
X-431006Y3489325D01*
X-436721Y3440747D01*
X-498634Y3440747D01*
X-498634Y3441700D01*
X-516731Y3507899D01*
X-585311Y3525520D01*
X-960596Y3525520D01*
X-993457Y3524091D01*
X-1018699Y3515042D01*
X-1037987Y3489801D01*
X-1044416Y3440747D01*
X-1035606Y3387884D01*
X-1009174Y3362642D01*
X-959644Y3356927D01*
X-667226Y3356927D01*
X-667226Y3260725D01*
X-855821Y3260725D01*
X-888682Y3259296D01*
X-913924Y3250247D01*
X-933212Y3225006D01*
X-939641Y3175952D01*
X-930592Y3123089D01*
X-903446Y3097847D01*
X-853916Y3092132D01*
X-667226Y3092132D01*
X-667226Y2995930D01*
X-960596Y2995930D01*
X-993457Y2994501D01*
X-1018699Y2985452D01*
X-1037987Y2960211D01*
X-1044416Y2911157D01*
X-1092041Y2911157D01*
X-1100971Y2960568D01*
X-1127760Y3005931D01*
X-1167170Y3046174D01*
X-1213961Y3080226D01*
X-1264444Y3110944D01*
X-1314926Y3141186D01*
X-1361718Y3173214D01*
X-1401127Y3209290D01*
X-1427917Y3248581D01*
X-1436846Y3290252D01*
X-1430179Y3314541D01*
X-1415415Y3340259D01*
X-1390174Y3358832D01*
X-1342549Y3367405D01*
X-1289685Y3345021D01*
X-1264444Y3300730D01*
X-1260634Y3278822D01*
X-1260634Y3273107D01*
X-1259205Y3241675D01*
X-1250156Y3217862D01*
X-1224439Y3200717D01*
X-1175861Y3195002D01*
X-1122759Y3204051D01*
X-1096804Y3231197D01*
X-1092041Y3279775D01*
X-1099926Y3343540D01*
X-1123580Y3402753D01*
X-1163002Y3457416D01*
X-1215178Y3501073D01*
X-1277091Y3527266D01*
X-1348740Y3535998D01*
X-1420442Y3527160D01*
X-1482513Y3500649D01*
X-1534954Y3456464D01*
X-1574641Y3400954D01*
X-1598454Y3340470D01*
X-1606391Y3275012D01*
X-1600438Y3222149D01*
X-1582579Y3172142D01*
X-1556385Y3128327D01*
X-1525429Y3094037D01*
X-1458754Y3041412D01*
X-1399699Y3009265D01*
X-1375886Y2999740D01*
X-1375886Y2994977D01*
X-1550194Y2994977D01*
X-1605915Y2985929D01*
X-1628299Y2958306D01*
X-1634014Y2909729D01*
X-1720055Y2909729D01*
X-1718548Y2911396D01*
X-1694974Y2949257D01*
X-1684496Y2974022D01*
X-1682591Y2983547D01*
X-1672114Y3034982D01*
X-1695450Y3076416D01*
X-1765459Y3090228D01*
X-1815941Y3080702D01*
X-1844516Y3031172D01*
X-1896904Y2985452D01*
X-1936909Y2979737D01*
X-1980724Y2984857D01*
X-2011204Y3000216D01*
X-2035016Y3046412D01*
X-2011680Y3091656D01*
X-1956435Y3111182D01*
X-1913096Y3113087D01*
X-1888331Y3122612D01*
X-1869043Y3147139D01*
X-1862614Y3195955D01*
X-1871424Y3249057D01*
X-1897856Y3275012D01*
X-1947386Y3279775D01*
X-2001679Y3289062D01*
X-2019776Y3316922D01*
X-2000726Y3355022D01*
X-1947863Y3373120D01*
X-1894046Y3361690D01*
X-1869281Y3338830D01*
X-1863566Y3327400D01*
X-1836896Y3291681D01*
X-1800701Y3279775D01*
X-1748314Y3296920D01*
X-1712595Y3326686D01*
X-1700689Y3360737D01*
X-1722596Y3425508D01*
X-1743551Y3455511D01*
X-1783080Y3493135D01*
X-1845945Y3522662D01*
X-1888688Y3532664D01*
X-1935956Y3535998D01*
X-2008558Y3528589D01*
X-2070153Y3506364D01*
X-2120741Y3469323D01*
X-2158312Y3423020D01*
X-2180855Y3373014D01*
X-2188369Y3319304D01*
X-2180114Y3268874D01*
X-2155349Y3228710D01*
X-2114074Y3198812D01*
X-2114074Y3192145D01*
X-2142173Y3171666D01*
X-2172176Y3140710D01*
X-2195751Y3097847D01*
X-2203609Y3049270D01*
X-2263211Y3049270D01*
X-2254303Y3109172D01*
X-2251234Y3175952D01*
X-2253721Y3236383D01*
X-2261182Y3290676D01*
X-2273617Y3338830D01*
X-2297311Y3399195D01*
X-2323624Y3445034D01*
X-2356842Y3480514D01*
X-2401253Y3509804D01*
X-2455188Y3529449D01*
X-2516981Y3535998D01*
X-2578537Y3529568D01*
X-2631757Y3510280D01*
X-2675572Y3481467D01*
X-2708910Y3446462D01*
X-2734270Y3405029D01*
X-2754154Y3356927D01*
X-2770029Y3298613D01*
X-2779554Y3237971D01*
X-2782729Y3175000D01*
X-2987516Y3175000D01*
X-2987516Y3251200D01*
X-2975134Y3239770D01*
X-2908459Y3210242D01*
X-2850833Y3243580D01*
X-2820829Y3302635D01*
X-2855119Y3358832D01*
X-3011329Y3499802D01*
X-3014186Y3501708D01*
X-3068003Y3526472D01*
X-3113246Y3521710D01*
X-3138011Y3510756D01*
X-3151346Y3490278D01*
X-3156109Y3439795D01*
X-3156109Y2909252D01*
X-3354546Y2909252D01*
X-3354546Y3734435D01*
X-3156109Y3734435D01*
X108109Y3734435D01*
X306546Y3734435D01*
X306546Y2615565D01*
G37*
G36*
X-2474476Y3355409D02*
G01*
X-2444115Y3319423D01*
X-2425898Y3259445D01*
X-2419826Y3175476D01*
X-2425839Y3091507D01*
X-2443877Y3031530D01*
X-2473940Y2995543D01*
X-2516029Y2983547D01*
X-2558951Y2995216D01*
X-2589609Y3030220D01*
X-2608005Y3088561D01*
X-2614136Y3170237D01*
X-2614136Y3175952D01*
X-2608064Y3259713D01*
X-2589847Y3319542D01*
X-2559487Y3355439D01*
X-2516981Y3367405D01*
X-2474476Y3355409D01*
G37*
D11*
%TO.C,JP2*%
X7750000Y-3540000D02*
X7750000Y-1540000D01*
X7750000Y-1540000D02*
X4950000Y-1540000D01*
X4950000Y-3540000D02*
X7750000Y-3540000D01*
X4950000Y-1540000D02*
X4950000Y-3540000D01*
%TO.C,kibuzzard-659D8E62*%
G36*
X771525Y1345565D02*
G01*
X573088Y1345565D01*
X209233Y1345565D01*
X-638493Y1345565D01*
X-1181417Y1345565D01*
X-1420971Y1345565D01*
X-1818640Y1345565D01*
X-2372043Y1345565D01*
X-2613501Y1345565D01*
X-3011170Y1345565D01*
X-3418364Y1345565D01*
X-3790315Y1345565D01*
X-3875088Y1345565D01*
X-4073525Y1345565D01*
X-4073525Y1639252D01*
X-3875088Y1639252D01*
X-3873659Y1606391D01*
X-3864610Y1581150D01*
X-3839369Y1561862D01*
X-3790315Y1555432D01*
X-3742452Y1561624D01*
X-3716973Y1580197D01*
X-3707924Y1606391D01*
X-3706495Y1641157D01*
X-3706495Y1644015D01*
X-3501708Y1644015D01*
X-3500279Y1610201D01*
X-3490278Y1584007D01*
X-3465155Y1563291D01*
X-3418364Y1556385D01*
X-3370501Y1560909D01*
X-3342164Y1574482D01*
X-3323590Y1643062D01*
X-3323590Y1646872D01*
X-3325019Y1680210D01*
X-3334068Y1705927D01*
X-3359190Y1727359D01*
X-3405981Y1734502D01*
X-3454678Y1729502D01*
X-3485515Y1714500D01*
X-3501708Y1647825D01*
X-3501708Y1644015D01*
X-3706495Y1644015D01*
X-3706495Y1905000D01*
X-3275965Y1905000D01*
X-3271322Y1823264D01*
X-3257391Y1750457D01*
X-3234174Y1686580D01*
X-3201670Y1631632D01*
X-3168690Y1596866D01*
X-3124994Y1568767D01*
X-3072011Y1550194D01*
X-3011170Y1544002D01*
X-2950091Y1550313D01*
X-2896394Y1569244D01*
X-2851864Y1597462D01*
X-2818289Y1631632D01*
X-2810504Y1644015D01*
X-2696845Y1644015D01*
X-2695416Y1610201D01*
X-2685415Y1584007D01*
X-2660293Y1563291D01*
X-2613501Y1556385D01*
X-2565638Y1560909D01*
X-2537301Y1574482D01*
X-2519759Y1639252D01*
X-2456815Y1639252D01*
X-2455386Y1606391D01*
X-2446338Y1581150D01*
X-2421096Y1561862D01*
X-2372043Y1555432D01*
X-2324179Y1561624D01*
X-2298700Y1580197D01*
X-2289651Y1606391D01*
X-2288223Y1641157D01*
X-2288223Y1905000D01*
X-2083435Y1905000D01*
X-2078792Y1823264D01*
X-2064861Y1750457D01*
X-2041644Y1686580D01*
X-2009140Y1631632D01*
X-1976160Y1596866D01*
X-1932464Y1568767D01*
X-1879481Y1550194D01*
X-1818640Y1544002D01*
X-1757561Y1550313D01*
X-1703864Y1569244D01*
X-1659334Y1597462D01*
X-1625759Y1631632D01*
X-1617974Y1644015D01*
X-1504315Y1644015D01*
X-1502886Y1610201D01*
X-1492885Y1584007D01*
X-1467763Y1563291D01*
X-1420971Y1556385D01*
X-1373108Y1560909D01*
X-1344771Y1574482D01*
X-1326456Y1642110D01*
X-1264285Y1642110D01*
X-1255236Y1587341D01*
X-1227614Y1564005D01*
X-1181417Y1558290D01*
X-1137603Y1563052D01*
X-1112838Y1574482D01*
X-1100455Y1593532D01*
X-1095125Y1639729D01*
X-724218Y1639729D01*
X-718026Y1591627D01*
X-697548Y1566862D01*
X-638493Y1555432D01*
X-266065Y1555432D01*
X-207010Y1581150D01*
X-182245Y1641157D01*
X-191175Y1690568D01*
X-217964Y1735931D01*
X-257373Y1776174D01*
X-304165Y1810226D01*
X-354647Y1840944D01*
X-405130Y1871186D01*
X-451922Y1903214D01*
X-491331Y1939290D01*
X-518120Y1978581D01*
X-527050Y2020252D01*
X-520383Y2044541D01*
X-505619Y2070259D01*
X-480377Y2088832D01*
X-432752Y2097405D01*
X-379889Y2075021D01*
X-354647Y2030730D01*
X-350837Y2008822D01*
X-350837Y2003107D01*
X-349409Y1971675D01*
X-340360Y1947862D01*
X-314643Y1930717D01*
X-266065Y1925002D01*
X-212963Y1934051D01*
X-187007Y1961197D01*
X-182245Y2009775D01*
X-190130Y2073540D01*
X-213783Y2132753D01*
X-250802Y2184082D01*
X-144145Y2184082D01*
X-129857Y2138362D01*
X133033Y1604962D01*
X164941Y1571149D01*
X209233Y1558290D01*
X218757Y1558290D01*
X264001Y1571149D01*
X295910Y1604962D01*
X558800Y2138362D01*
X573088Y2184082D01*
X559038Y2215991D01*
X516890Y2245042D01*
X468789Y2261235D01*
X443548Y2257425D01*
X427355Y2244090D01*
X411639Y2218849D01*
X398899Y2192179D01*
X374968Y2139791D01*
X344368Y2072521D01*
X311626Y2001202D01*
X278765Y1929884D01*
X247809Y1862614D01*
X224353Y1811774D01*
X213995Y1789747D01*
X23495Y2206943D01*
X10160Y2235517D01*
X-31750Y2261235D01*
X-87947Y2245042D01*
X-130096Y2215991D01*
X-144145Y2184082D01*
X-250802Y2184082D01*
X-253206Y2187416D01*
X-305382Y2231073D01*
X-367295Y2257266D01*
X-438944Y2265998D01*
X-510646Y2257160D01*
X-572717Y2230649D01*
X-625157Y2186464D01*
X-664845Y2130954D01*
X-688658Y2070470D01*
X-696595Y2005012D01*
X-690642Y1952149D01*
X-672783Y1902142D01*
X-646589Y1858327D01*
X-615632Y1824037D01*
X-548958Y1771412D01*
X-489902Y1739265D01*
X-466090Y1729740D01*
X-466090Y1724977D01*
X-640397Y1724977D01*
X-696119Y1715929D01*
X-718503Y1688306D01*
X-724218Y1639729D01*
X-1095125Y1639729D01*
X-1094740Y1643062D01*
X-1094740Y1759267D01*
X-836613Y1759267D01*
X-783511Y1768316D01*
X-757555Y1795462D01*
X-752793Y1836420D01*
X-755650Y1874520D01*
X-834707Y2193607D01*
X-844709Y2226945D01*
X-861854Y2248852D01*
X-894715Y2259330D01*
X-938530Y2252662D01*
X-988536Y2228374D01*
X-1005205Y2191702D01*
X-998537Y2151698D01*
X-997585Y2148840D01*
X-939483Y1916430D01*
X-1094740Y1916430D01*
X-1094740Y2176462D01*
X-1096169Y2208847D01*
X-1105218Y2232660D01*
X-1131411Y2251234D01*
X-1179989Y2256472D01*
X-1228090Y2250281D01*
X-1253808Y2230279D01*
X-1262856Y2205037D01*
X-1264285Y2171700D01*
X-1264285Y1642110D01*
X-1326456Y1642110D01*
X-1326198Y1643062D01*
X-1326198Y1646872D01*
X-1327626Y1680210D01*
X-1336675Y1705927D01*
X-1361797Y1727359D01*
X-1408589Y1734502D01*
X-1457285Y1729502D01*
X-1488123Y1714500D01*
X-1504315Y1647825D01*
X-1504315Y1644015D01*
X-1617974Y1644015D01*
X-1600160Y1672352D01*
X-1579563Y1720215D01*
X-1564217Y1777259D01*
X-1555009Y1839172D01*
X-1551940Y1905952D01*
X-1554427Y1966383D01*
X-1561888Y2020676D01*
X-1574324Y2068830D01*
X-1598017Y2129195D01*
X-1624330Y2175034D01*
X-1657548Y2210514D01*
X-1701959Y2239804D01*
X-1755894Y2259449D01*
X-1817688Y2265998D01*
X-1879243Y2259568D01*
X-1932464Y2240280D01*
X-1976279Y2211467D01*
X-2009616Y2176462D01*
X-2034977Y2135029D01*
X-2054860Y2086927D01*
X-2070735Y2028613D01*
X-2080260Y1967971D01*
X-2083435Y1905000D01*
X-2288223Y1905000D01*
X-2288223Y1981200D01*
X-2275840Y1969770D01*
X-2209165Y1940242D01*
X-2151539Y1973580D01*
X-2121535Y2032635D01*
X-2155825Y2088832D01*
X-2312035Y2229802D01*
X-2314893Y2231708D01*
X-2368709Y2256472D01*
X-2413952Y2251710D01*
X-2438718Y2240756D01*
X-2452053Y2220278D01*
X-2456815Y2169795D01*
X-2456815Y1639252D01*
X-2519759Y1639252D01*
X-2518727Y1643062D01*
X-2518727Y1646872D01*
X-2520156Y1680210D01*
X-2529205Y1705927D01*
X-2554327Y1727359D01*
X-2601119Y1734502D01*
X-2649815Y1729502D01*
X-2680652Y1714500D01*
X-2696845Y1647825D01*
X-2696845Y1644015D01*
X-2810504Y1644015D01*
X-2792690Y1672352D01*
X-2772093Y1720215D01*
X-2756747Y1777259D01*
X-2747539Y1839172D01*
X-2744470Y1905952D01*
X-2746957Y1966383D01*
X-2754418Y2020676D01*
X-2766854Y2068830D01*
X-2790547Y2129195D01*
X-2816860Y2175034D01*
X-2850078Y2210514D01*
X-2894489Y2239804D01*
X-2948424Y2259449D01*
X-3010218Y2265998D01*
X-3071773Y2259568D01*
X-3124994Y2240280D01*
X-3168809Y2211467D01*
X-3202146Y2176462D01*
X-3227507Y2135029D01*
X-3247390Y2086927D01*
X-3263265Y2028613D01*
X-3272790Y1967971D01*
X-3275965Y1905000D01*
X-3706495Y1905000D01*
X-3706495Y1981200D01*
X-3694113Y1969770D01*
X-3627438Y1940242D01*
X-3569811Y1973580D01*
X-3539808Y2032635D01*
X-3574098Y2088832D01*
X-3730308Y2229802D01*
X-3733165Y2231708D01*
X-3786981Y2256472D01*
X-3832225Y2251710D01*
X-3856990Y2240756D01*
X-3870325Y2220278D01*
X-3875088Y2169795D01*
X-3875088Y1639252D01*
X-4073525Y1639252D01*
X-4073525Y2464435D01*
X-3875088Y2464435D01*
X573088Y2464435D01*
X771525Y2464435D01*
X771525Y1345565D01*
G37*
G36*
X-2967712Y2085409D02*
G01*
X-2937351Y2049423D01*
X-2919135Y1989445D01*
X-2913063Y1905476D01*
X-2919075Y1821507D01*
X-2937113Y1761530D01*
X-2967176Y1725543D01*
X-3009265Y1713547D01*
X-3052187Y1725216D01*
X-3082846Y1760220D01*
X-3101241Y1818561D01*
X-3107373Y1900237D01*
X-3107373Y1905952D01*
X-3101300Y1989713D01*
X-3083084Y2049542D01*
X-3052723Y2085439D01*
X-3010218Y2097405D01*
X-2967712Y2085409D01*
G37*
G36*
X-1775182Y2085409D02*
G01*
X-1744821Y2049423D01*
X-1726605Y1989445D01*
X-1720533Y1905476D01*
X-1726545Y1821507D01*
X-1744583Y1761530D01*
X-1774646Y1725543D01*
X-1816735Y1713547D01*
X-1859657Y1725216D01*
X-1890316Y1760220D01*
X-1908711Y1818561D01*
X-1914843Y1900237D01*
X-1914843Y1905952D01*
X-1908770Y1989713D01*
X-1890554Y2049542D01*
X-1860193Y2085439D01*
X-1817688Y2097405D01*
X-1775182Y2085409D01*
G37*
%TO.C,kibuzzard-659D8E26*%
G36*
X3911918Y3885089D02*
G01*
X3713480Y3885089D01*
X3365818Y3885089D01*
X2877185Y3885089D01*
X1788954Y3885089D01*
X1542733Y3885089D01*
X1009333Y3885089D01*
X311150Y3885089D01*
X-590867Y3885089D01*
X-1312386Y3885089D01*
X-1933892Y3885089D01*
X-2650649Y3885089D01*
X-3245961Y3885089D01*
X-3751263Y3885089D01*
X-4462304Y3885089D01*
X-5157153Y3885089D01*
X-5491480Y3885089D01*
X-5689918Y3885089D01*
X-5689918Y4726464D01*
X-5491480Y4726464D01*
X-5486718Y4686935D01*
X-5470525Y4666456D01*
X-5421948Y4657884D01*
X-5240020Y4657884D01*
X-5240020Y4178776D01*
X-5238591Y4146391D01*
X-5230019Y4122102D01*
X-5204778Y4102576D01*
X-5157153Y4096861D01*
X-5110004Y4102576D01*
X-5085239Y4122102D01*
X-5076666Y4146868D01*
X-5075238Y4179729D01*
X-5075238Y4422616D01*
X-4771390Y4422616D01*
X-4766508Y4361180D01*
X-4751864Y4302601D01*
X-4727456Y4246880D01*
X-4693285Y4194016D01*
X-4649708Y4150082D01*
X-4595178Y4115435D01*
X-4531955Y4092932D01*
X-4462304Y4085431D01*
X-4392771Y4093051D01*
X-4329906Y4115911D01*
X-4275971Y4151154D01*
X-4233228Y4195921D01*
X-4199473Y4248071D01*
X-4175363Y4303554D01*
X-4160897Y4362371D01*
X-4156075Y4424521D01*
X-4156075Y4448810D01*
X-4094163Y4448810D01*
X-4087971Y4376122D01*
X-4069398Y4309031D01*
X-4038441Y4247535D01*
X-3995103Y4191635D01*
X-3942715Y4145171D01*
X-3884613Y4111982D01*
X-3820795Y4092069D01*
X-3751263Y4085431D01*
X-3681581Y4091980D01*
X-3617317Y4111625D01*
X-3558471Y4144367D01*
X-3520029Y4177347D01*
X-3346450Y4177347D01*
X-3308350Y4120197D01*
X-3245961Y4087336D01*
X-3187383Y4127341D01*
X-2977833Y4366419D01*
X-2977833Y4180681D01*
X-2976404Y4147344D01*
X-2967355Y4122579D01*
X-2942114Y4103291D01*
X-2893060Y4096861D01*
X-2840196Y4105910D01*
X-2814955Y4133056D01*
X-2811145Y4165441D01*
X-2756852Y4165441D01*
X-2743041Y4132818D01*
X-2701608Y4103529D01*
X-2650649Y4087336D01*
X-2620169Y4095909D01*
X-2603024Y4114006D01*
X-2588260Y4142581D01*
X-2538730Y4245451D01*
X-2274887Y4245451D01*
X-2225357Y4142581D01*
X-2210594Y4114959D01*
X-2193449Y4097337D01*
X-2162969Y4088289D01*
X-2112010Y4104481D01*
X-2070576Y4133056D01*
X-2056765Y4165441D01*
X-2061845Y4180681D01*
X-2018665Y4180681D01*
X-2009854Y4127817D01*
X-1983422Y4102576D01*
X-1933892Y4096861D01*
X-1556702Y4096861D01*
X-1503839Y4105910D01*
X-1478597Y4133056D01*
X-1474787Y4165441D01*
X-1420495Y4165441D01*
X-1405731Y4132104D01*
X-1361440Y4104481D01*
X-1312386Y4091146D01*
X-1281906Y4100195D01*
X-1264285Y4118769D01*
X-1251797Y4145968D01*
X-1227032Y4203435D01*
X-1189990Y4291171D01*
X-1160462Y4289266D01*
X-1040447Y4289266D01*
X-1040447Y4181634D01*
X-1039019Y4148772D01*
X-1029970Y4123531D01*
X-1004729Y4104243D01*
X-955675Y4097814D01*
X-902811Y4106624D01*
X-877570Y4133056D01*
X-871855Y4182586D01*
X-871855Y4321651D01*
X-809942Y4321651D01*
X-801846Y4261591D01*
X-780097Y4208410D01*
X-744696Y4162107D01*
X-699452Y4126389D01*
X-648176Y4104958D01*
X-590867Y4097814D01*
X-340360Y4097814D01*
X-287496Y4106863D01*
X-262255Y4134009D01*
X-256540Y4183539D01*
X-256540Y4444524D01*
X46355Y4444524D01*
X50998Y4362787D01*
X64929Y4289981D01*
X88146Y4226104D01*
X120650Y4171156D01*
X153630Y4136390D01*
X197326Y4108291D01*
X250309Y4089717D01*
X311150Y4083526D01*
X372229Y4089837D01*
X425926Y4108767D01*
X470456Y4136985D01*
X504031Y4171156D01*
X529630Y4211876D01*
X550228Y4259739D01*
X565573Y4316783D01*
X574781Y4378695D01*
X577850Y4445476D01*
X575363Y4505907D01*
X573196Y4521676D01*
X625475Y4521676D01*
X629590Y4451306D01*
X641934Y4385735D01*
X662508Y4324966D01*
X691312Y4268997D01*
X728345Y4217829D01*
X772503Y4173938D01*
X822681Y4139800D01*
X878878Y4115416D01*
X941095Y4100786D01*
X1009333Y4095909D01*
X1015048Y4095909D01*
X1066483Y4105434D01*
X1086485Y4132342D01*
X1093153Y4180681D01*
X1084104Y4233545D01*
X1056958Y4258786D01*
X1001713Y4264501D01*
X925989Y4277836D01*
X869315Y4310221D01*
X835739Y4347369D01*
X816928Y4380706D01*
X812165Y4394041D01*
X883603Y4377849D01*
X942922Y4384781D01*
X996421Y4405577D01*
X1044099Y4440238D01*
X1081405Y4483576D01*
X1099616Y4521676D01*
X1158875Y4521676D01*
X1162990Y4451306D01*
X1175334Y4385735D01*
X1195908Y4324966D01*
X1224712Y4268997D01*
X1261745Y4217829D01*
X1305903Y4173938D01*
X1356081Y4139800D01*
X1412278Y4115416D01*
X1474495Y4100786D01*
X1542733Y4095909D01*
X1548448Y4095909D01*
X1599883Y4105434D01*
X1619885Y4132342D01*
X1624451Y4165441D01*
X1682750Y4165441D01*
X1696561Y4132818D01*
X1737995Y4103529D01*
X1788954Y4087336D01*
X1819434Y4095909D01*
X1836579Y4114006D01*
X1851343Y4142581D01*
X1900873Y4245451D01*
X2164715Y4245451D01*
X2214245Y4142581D01*
X2229009Y4114959D01*
X2246154Y4097337D01*
X2276634Y4088289D01*
X2327593Y4104481D01*
X2369026Y4133056D01*
X2382838Y4165441D01*
X2366645Y4214019D01*
X2208383Y4541679D01*
X2420938Y4541679D01*
X2427129Y4482743D01*
X2445703Y4429760D01*
X2474039Y4384873D01*
X2509520Y4350226D01*
X2562860Y4316360D01*
X2617470Y4296040D01*
X2673350Y4289266D01*
X2792413Y4289266D01*
X2792413Y4181634D01*
X2793841Y4148772D01*
X2802890Y4123531D01*
X2828131Y4104243D01*
X2877185Y4097814D01*
X2930049Y4106624D01*
X2955290Y4133056D01*
X2961005Y4182586D01*
X2961005Y4448810D01*
X3022918Y4448810D01*
X3029109Y4376122D01*
X3047683Y4309031D01*
X3078639Y4247535D01*
X3121978Y4191635D01*
X3174365Y4145171D01*
X3232468Y4111982D01*
X3296285Y4092069D01*
X3365818Y4085431D01*
X3435499Y4091980D01*
X3499763Y4111625D01*
X3558609Y4144367D01*
X3612039Y4190206D01*
X3656419Y4245094D01*
X3688120Y4304982D01*
X3707140Y4369872D01*
X3713480Y4439761D01*
X3706336Y4516318D01*
X3684905Y4587875D01*
X3651568Y4651335D01*
X3608705Y4703604D01*
X3557508Y4745276D01*
X3499168Y4776946D01*
X3436303Y4796949D01*
X3371533Y4803616D01*
X3303369Y4797246D01*
X3239849Y4778137D01*
X3180973Y4746288D01*
X3126740Y4701699D01*
X3081318Y4647674D01*
X3048873Y4587518D01*
X3029406Y4521230D01*
X3022918Y4448810D01*
X2961005Y4448810D01*
X2961005Y4711224D01*
X2959576Y4744085D01*
X2950528Y4769326D01*
X2925286Y4788614D01*
X2876233Y4795044D01*
X2672398Y4795044D01*
X2617047Y4788270D01*
X2562754Y4767950D01*
X2509520Y4734084D01*
X2474039Y4699318D01*
X2445703Y4654074D01*
X2427129Y4600734D01*
X2420938Y4541679D01*
X2208383Y4541679D01*
X2109470Y4746466D01*
X2077561Y4781709D01*
X2032318Y4795044D01*
X1987550Y4782661D01*
X1956118Y4745514D01*
X1698943Y4214019D01*
X1682750Y4165441D01*
X1624451Y4165441D01*
X1626553Y4180681D01*
X1617504Y4233545D01*
X1590358Y4258786D01*
X1535113Y4264501D01*
X1459389Y4277836D01*
X1402715Y4310221D01*
X1369139Y4347369D01*
X1350328Y4380706D01*
X1345565Y4394041D01*
X1417003Y4377849D01*
X1476322Y4384781D01*
X1529821Y4405577D01*
X1577499Y4440238D01*
X1614805Y4483576D01*
X1637189Y4530407D01*
X1644650Y4580731D01*
X1637030Y4641374D01*
X1614170Y4695031D01*
X1576070Y4741704D01*
X1527069Y4777687D01*
X1471507Y4799277D01*
X1409383Y4806474D01*
X1333077Y4797637D01*
X1270529Y4771125D01*
X1221740Y4726940D01*
X1186815Y4668785D01*
X1165860Y4600363D01*
X1158875Y4521676D01*
X1099616Y4521676D01*
X1103789Y4530407D01*
X1111250Y4580731D01*
X1103630Y4641374D01*
X1080770Y4695031D01*
X1042670Y4741704D01*
X993669Y4777687D01*
X938107Y4799277D01*
X875983Y4806474D01*
X799677Y4797637D01*
X737129Y4771125D01*
X688340Y4726940D01*
X653415Y4668785D01*
X632460Y4600363D01*
X625475Y4521676D01*
X573196Y4521676D01*
X567902Y4560200D01*
X555466Y4608354D01*
X531773Y4668718D01*
X505460Y4714558D01*
X472242Y4750038D01*
X427831Y4779328D01*
X373896Y4798973D01*
X312103Y4805521D01*
X250547Y4799092D01*
X197326Y4779804D01*
X153511Y4750991D01*
X120174Y4715986D01*
X94813Y4674553D01*
X74930Y4626451D01*
X59055Y4568137D01*
X49530Y4507495D01*
X46355Y4444524D01*
X-256540Y4444524D01*
X-256540Y4712176D01*
X-257969Y4745514D01*
X-267017Y4770279D01*
X-292259Y4789567D01*
X-341312Y4795996D01*
X-581342Y4795996D01*
X-636587Y4789223D01*
X-685482Y4768903D01*
X-728027Y4735036D01*
X-762423Y4691010D01*
X-783061Y4641480D01*
X-789940Y4586446D01*
X-780891Y4526201D01*
X-753745Y4471194D01*
X-784966Y4424945D01*
X-803698Y4375097D01*
X-809942Y4321651D01*
X-871855Y4321651D01*
X-871855Y4711224D01*
X-873284Y4744085D01*
X-882332Y4769326D01*
X-907574Y4788614D01*
X-956627Y4795044D01*
X-1162367Y4795044D01*
X-1217718Y4788270D01*
X-1272011Y4767950D01*
X-1325245Y4734084D01*
X-1360011Y4699318D01*
X-1388110Y4654074D01*
X-1406684Y4600734D01*
X-1412875Y4541679D01*
X-1404938Y4474157D01*
X-1381125Y4415102D01*
X-1341437Y4364514D01*
X-1357948Y4325461D01*
X-1379537Y4275614D01*
X-1406207Y4214971D01*
X-1420495Y4165441D01*
X-1474787Y4165441D01*
X-1472882Y4181634D01*
X-1472882Y4711224D01*
X-1490980Y4777423D01*
X-1559560Y4795044D01*
X-1934845Y4795044D01*
X-1967706Y4793615D01*
X-1992947Y4784566D01*
X-2012236Y4759325D01*
X-2018665Y4710271D01*
X-2009854Y4657407D01*
X-1983422Y4632166D01*
X-1933892Y4626451D01*
X-1641475Y4626451D01*
X-1641475Y4530249D01*
X-1830070Y4530249D01*
X-1862931Y4528820D01*
X-1888172Y4519771D01*
X-1907461Y4494530D01*
X-1913890Y4445476D01*
X-1904841Y4392612D01*
X-1877695Y4367371D01*
X-1828165Y4361656D01*
X-1641475Y4361656D01*
X-1641475Y4265454D01*
X-1934845Y4265454D01*
X-1967706Y4264025D01*
X-1992947Y4254976D01*
X-2012236Y4229735D01*
X-2018665Y4180681D01*
X-2061845Y4180681D01*
X-2072957Y4214019D01*
X-2330132Y4746466D01*
X-2362041Y4781709D01*
X-2407285Y4795044D01*
X-2452052Y4782661D01*
X-2483485Y4745514D01*
X-2740660Y4214019D01*
X-2756852Y4165441D01*
X-2811145Y4165441D01*
X-2809240Y4181634D01*
X-2809240Y4711224D01*
X-2810669Y4744085D01*
X-2819717Y4769326D01*
X-2844959Y4788614D01*
X-2894013Y4795044D01*
X-2947114Y4786233D01*
X-2973070Y4759801D01*
X-2977833Y4710271D01*
X-2977833Y4528344D01*
X-3027667Y4584541D01*
X-3073540Y4636548D01*
X-3115450Y4684363D01*
X-3153397Y4727988D01*
X-3187383Y4767421D01*
X-3245485Y4806474D01*
X-3308350Y4773613D01*
X-3346450Y4716463D01*
X-3317875Y4658836D01*
X-3286443Y4623951D01*
X-3247390Y4583112D01*
X-3200718Y4536321D01*
X-3146425Y4483576D01*
X-3108325Y4447381D01*
X-3175893Y4381718D01*
X-3232864Y4324747D01*
X-3279239Y4276467D01*
X-3315018Y4236879D01*
X-3346450Y4177347D01*
X-3520029Y4177347D01*
X-3505041Y4190206D01*
X-3460661Y4245094D01*
X-3428960Y4304982D01*
X-3409940Y4369872D01*
X-3403600Y4439761D01*
X-3410744Y4516318D01*
X-3432175Y4587875D01*
X-3465513Y4651335D01*
X-3508375Y4703604D01*
X-3559572Y4745276D01*
X-3617913Y4776946D01*
X-3680778Y4796949D01*
X-3745548Y4803616D01*
X-3813711Y4797246D01*
X-3877231Y4778137D01*
X-3936107Y4746288D01*
X-3990340Y4701699D01*
X-4035762Y4647674D01*
X-4068207Y4587518D01*
X-4087674Y4521230D01*
X-4094163Y4448810D01*
X-4156075Y4448810D01*
X-4156075Y4711224D01*
X-4157504Y4745038D01*
X-4166553Y4770279D01*
X-4192270Y4790281D01*
X-4240848Y4795996D01*
X-4289425Y4790281D01*
X-4314190Y4770279D01*
X-4325620Y4710271D01*
X-4325620Y4424521D01*
X-4332764Y4367848D01*
X-4354195Y4314031D01*
X-4397058Y4271169D01*
X-4464685Y4254976D01*
X-4525407Y4267835D01*
X-4568508Y4306411D01*
X-4594225Y4361894D01*
X-4602798Y4425474D01*
X-4602798Y4716939D01*
X-4612323Y4769326D01*
X-4639945Y4790281D01*
X-4685189Y4795996D01*
X-4728528Y4791234D01*
X-4753293Y4779804D01*
X-4765675Y4759801D01*
X-4771390Y4710271D01*
X-4771390Y4422616D01*
X-5075238Y4422616D01*
X-5075238Y4657884D01*
X-4892358Y4657884D01*
X-4847590Y4665028D01*
X-4828540Y4687411D01*
X-4823778Y4727416D01*
X-4828540Y4766945D01*
X-4844733Y4787424D01*
X-4893310Y4795996D01*
X-5422900Y4795996D01*
X-5467668Y4788853D01*
X-5486718Y4766469D01*
X-5491480Y4726464D01*
X-5689918Y4726464D01*
X-5689918Y5004911D01*
X-5491480Y5004911D01*
X3713480Y5004911D01*
X3911918Y5004911D01*
X3911918Y3885089D01*
G37*
G36*
X-3684111Y4621808D02*
G01*
X-3626485Y4582160D01*
X-3596323Y4543372D01*
X-3578225Y4497493D01*
X-3572193Y4444524D01*
X-3578278Y4391554D01*
X-3596534Y4345675D01*
X-3626961Y4306888D01*
X-3684945Y4267240D01*
X-3749358Y4254024D01*
X-3813651Y4266882D01*
X-3871278Y4305459D01*
X-3901440Y4343665D01*
X-3919538Y4389702D01*
X-3925570Y4443571D01*
X-3919485Y4497546D01*
X-3901228Y4543901D01*
X-3870801Y4582636D01*
X-3812818Y4621927D01*
X-3748405Y4635024D01*
X-3684111Y4621808D01*
G37*
G36*
X3432969Y4621808D02*
G01*
X3490595Y4582160D01*
X3520758Y4543372D01*
X3538855Y4497493D01*
X3544888Y4444524D01*
X3538802Y4391554D01*
X3520546Y4345675D01*
X3490119Y4306888D01*
X3432135Y4267240D01*
X3367723Y4254024D01*
X3303429Y4266882D01*
X3245803Y4305459D01*
X3215640Y4343665D01*
X3197543Y4389702D01*
X3191510Y4443571D01*
X3197595Y4497546D01*
X3215852Y4543901D01*
X3246279Y4582636D01*
X3304262Y4621927D01*
X3368675Y4635024D01*
X3432969Y4621808D01*
G37*
G36*
X354608Y4624933D02*
G01*
X384969Y4588947D01*
X403185Y4528969D01*
X409258Y4445000D01*
X403245Y4361031D01*
X385207Y4301053D01*
X355144Y4265067D01*
X313055Y4253071D01*
X270133Y4264739D01*
X239474Y4299744D01*
X221079Y4358084D01*
X214948Y4439761D01*
X214948Y4445476D01*
X221020Y4529237D01*
X239236Y4589066D01*
X269597Y4624963D01*
X312103Y4636929D01*
X354608Y4624933D01*
G37*
G36*
X-425132Y4266406D02*
G01*
X-581342Y4266406D01*
X-626348Y4282599D01*
X-641350Y4331176D01*
X-636111Y4367371D01*
X-618490Y4386421D01*
X-565150Y4394041D01*
X-513715Y4407376D01*
X-496570Y4462145D01*
X-514191Y4516914D01*
X-572770Y4530249D01*
X-618490Y4550251D01*
X-621347Y4584541D01*
X-605631Y4617879D01*
X-558482Y4627404D01*
X-425132Y4627404D01*
X-425132Y4266406D01*
G37*
G36*
X927179Y4634309D02*
G01*
X945515Y4586446D01*
X928846Y4545489D01*
X875030Y4526439D01*
X818356Y4544060D01*
X798830Y4579303D01*
X801211Y4606925D01*
X811213Y4628356D01*
X872173Y4650264D01*
X927179Y4634309D01*
G37*
G36*
X1460579Y4634309D02*
G01*
X1478915Y4586446D01*
X1462246Y4545489D01*
X1408430Y4526439D01*
X1351756Y4544060D01*
X1332230Y4579303D01*
X1334611Y4606925D01*
X1344613Y4628356D01*
X1405573Y4650264D01*
X1460579Y4634309D01*
G37*
G36*
X-1040447Y4457859D02*
G01*
X-1162367Y4457859D01*
X-1217612Y4478814D01*
X-1245235Y4541679D01*
X-1217612Y4605020D01*
X-1160462Y4626451D01*
X-1040447Y4626451D01*
X-1040447Y4457859D01*
G37*
G36*
X2792413Y4457859D02*
G01*
X2672398Y4457859D01*
X2616200Y4478814D01*
X2588578Y4541679D01*
X2616200Y4605020D01*
X2673350Y4626451D01*
X2792413Y4626451D01*
X2792413Y4457859D01*
G37*
G36*
X-2343467Y4386421D02*
G01*
X-2470150Y4386421D01*
X-2406333Y4516914D01*
X-2343467Y4386421D01*
G37*
G36*
X2096135Y4386421D02*
G01*
X1969453Y4386421D01*
X2033270Y4516914D01*
X2096135Y4386421D01*
G37*
%TO.C,JP1*%
X7660000Y1540000D02*
X7660000Y3540000D01*
X7660000Y3540000D02*
X4860000Y3540000D01*
X4860000Y1540000D02*
X7660000Y1540000D01*
X4860000Y3540000D02*
X4860000Y1540000D01*
%TO.C,J2*%
X8830000Y1270000D02*
X8830000Y-3870000D01*
X11490000Y3870000D02*
X10160000Y3870000D01*
X11490000Y2540000D02*
X11490000Y3870000D01*
X11490000Y1270000D02*
X8830000Y1270000D01*
X11490000Y1270000D02*
X11490000Y-3870000D01*
X11490000Y-3870000D02*
X8830000Y-3870000D01*
%TD*%
M02*
