%TF.GenerationSoftware,KiCad,Pcbnew,7.0.9*%
%TF.CreationDate,2024-01-09T19:27:13+00:00*%
%TF.ProjectId,OPA990 Breakout,4f504139-3930-4204-9272-65616b6f7574,V24.01.0.1*%
%TF.SameCoordinates,PX8c7ecc0PY5c0c740*%
%TF.FileFunction,Copper,L3,Inr*%
%TF.FilePolarity,Positive*%
%FSLAX46Y46*%
G04 Gerber Fmt 4.6, Leading zero omitted, Abs format (unit mm)*
G04 Created by KiCad (PCBNEW 7.0.9) date 2024-01-09 19:27:13*
%MOMM*%
%LPD*%
G01*
G04 APERTURE LIST*
%TA.AperFunction,ComponentPad*%
%ADD10O,1.700000X1.700000*%
%TD*%
%TA.AperFunction,ComponentPad*%
%ADD11R,1.700000X1.700000*%
%TD*%
%TA.AperFunction,ViaPad*%
%ADD12C,0.700000*%
%TD*%
G04 APERTURE END LIST*
D10*
%TO.N,Net-(J1-Pin_3)*%
%TO.C,J1*%
X-7620000Y-2540000D03*
%TO.N,VIO*%
X-7620000Y0D03*
D11*
%TO.N,Net-(J1-Pin_1)*%
X-7620000Y2540000D03*
%TD*%
D10*
%TO.N,VSS*%
%TO.C,J2*%
X10160000Y-2540000D03*
%TO.N,Net-(D1A-COM)*%
X10160000Y0D03*
D11*
%TO.N,VDD*%
X10160000Y2540000D03*
%TD*%
D12*
%TO.N,GND*%
X8255000Y1270000D03*
X7620000Y-5080000D03*
X-5080000Y-3810000D03*
X1397000Y-5334000D03*
X-5207000Y3302000D03*
X-3810000Y-254000D03*
%TO.N,VSS*%
X889000Y3048000D03*
%TO.N,VDD*%
X3429000Y-1270000D03*
%TO.N,GND*%
X0Y5461000D03*
X5461000Y-889000D03*
X3429000Y-2794000D03*
X-1905000Y5461000D03*
X4699000Y-2540000D03*
X4572000Y4572000D03*
%TO.N,VIO*%
X3556000Y1016000D03*
%TD*%
%TA.AperFunction,Conductor*%
%TO.N,GND*%
G36*
X10797694Y6049265D02*
G01*
X10952546Y6035717D01*
X10973823Y6031966D01*
X11116111Y5993840D01*
X11136420Y5986447D01*
X11269914Y5924198D01*
X11288633Y5913391D01*
X11409299Y5828900D01*
X11425857Y5815006D01*
X11530005Y5710858D01*
X11543899Y5694300D01*
X11628390Y5573634D01*
X11639197Y5554915D01*
X11701446Y5421421D01*
X11708839Y5401111D01*
X11746963Y5258831D01*
X11750716Y5237545D01*
X11764264Y5082700D01*
X11764500Y5077294D01*
X11764500Y-5077293D01*
X11764264Y-5082699D01*
X11750716Y-5237544D01*
X11746963Y-5258830D01*
X11708839Y-5401110D01*
X11701446Y-5421420D01*
X11639197Y-5554914D01*
X11628390Y-5573633D01*
X11543899Y-5694299D01*
X11530005Y-5710857D01*
X11425857Y-5815005D01*
X11409299Y-5828899D01*
X11288633Y-5913390D01*
X11269914Y-5924197D01*
X11136420Y-5986446D01*
X11116110Y-5993839D01*
X10973830Y-6031963D01*
X10952544Y-6035716D01*
X10840205Y-6045545D01*
X10797694Y-6049264D01*
X10792294Y-6049500D01*
X-8252294Y-6049500D01*
X-8257695Y-6049264D01*
X-8305385Y-6045091D01*
X-8412545Y-6035716D01*
X-8433831Y-6031963D01*
X-8576111Y-5993839D01*
X-8596421Y-5986446D01*
X-8729915Y-5924197D01*
X-8748634Y-5913390D01*
X-8869300Y-5828899D01*
X-8885858Y-5815005D01*
X-8990006Y-5710857D01*
X-9003900Y-5694299D01*
X-9088391Y-5573633D01*
X-9099198Y-5554914D01*
X-9161447Y-5421420D01*
X-9168840Y-5401110D01*
X-9206966Y-5258823D01*
X-9210717Y-5237543D01*
X-9224264Y-5082699D01*
X-9224500Y-5077293D01*
X-9224500Y-2540000D01*
X-8725215Y-2540000D01*
X-8706398Y-2743082D01*
X-8650583Y-2939247D01*
X-8650578Y-2939260D01*
X-8559673Y-3121821D01*
X-8436763Y-3284581D01*
X-8286042Y-3421980D01*
X-8286040Y-3421982D01*
X-8186859Y-3483392D01*
X-8112637Y-3529348D01*
X-7922456Y-3603024D01*
X-7721976Y-3640500D01*
X-7721974Y-3640500D01*
X-7518026Y-3640500D01*
X-7518024Y-3640500D01*
X-7317544Y-3603024D01*
X-7127363Y-3529348D01*
X-6953959Y-3421981D01*
X-6803236Y-3284579D01*
X-6680327Y-3121821D01*
X-6589418Y-2939250D01*
X-6533603Y-2743083D01*
X-6514785Y-2540000D01*
X9054785Y-2540000D01*
X9073602Y-2743082D01*
X9129417Y-2939247D01*
X9129422Y-2939260D01*
X9220327Y-3121821D01*
X9343237Y-3284581D01*
X9493958Y-3421980D01*
X9493960Y-3421982D01*
X9593141Y-3483392D01*
X9667363Y-3529348D01*
X9857544Y-3603024D01*
X10058024Y-3640500D01*
X10058026Y-3640500D01*
X10261974Y-3640500D01*
X10261976Y-3640500D01*
X10462456Y-3603024D01*
X10652637Y-3529348D01*
X10826041Y-3421981D01*
X10976764Y-3284579D01*
X11099673Y-3121821D01*
X11190582Y-2939250D01*
X11246397Y-2743083D01*
X11265215Y-2540000D01*
X11246397Y-2336917D01*
X11190582Y-2140750D01*
X11099673Y-1958179D01*
X10976764Y-1795421D01*
X10976762Y-1795418D01*
X10826041Y-1658019D01*
X10826039Y-1658017D01*
X10652642Y-1550655D01*
X10652635Y-1550651D01*
X10557546Y-1513814D01*
X10462456Y-1476976D01*
X10261976Y-1439500D01*
X10058024Y-1439500D01*
X9857544Y-1476976D01*
X9857541Y-1476976D01*
X9857541Y-1476977D01*
X9667364Y-1550651D01*
X9667357Y-1550655D01*
X9493960Y-1658017D01*
X9493958Y-1658019D01*
X9343237Y-1795418D01*
X9220327Y-1958178D01*
X9129422Y-2140739D01*
X9129417Y-2140752D01*
X9073602Y-2336917D01*
X9054785Y-2539999D01*
X9054785Y-2540000D01*
X-6514785Y-2540000D01*
X-6533603Y-2336917D01*
X-6589418Y-2140750D01*
X-6680327Y-1958179D01*
X-6803236Y-1795421D01*
X-6803238Y-1795418D01*
X-6953959Y-1658019D01*
X-6953961Y-1658017D01*
X-7127358Y-1550655D01*
X-7127365Y-1550651D01*
X-7222454Y-1513814D01*
X-7317544Y-1476976D01*
X-7518024Y-1439500D01*
X-7721976Y-1439500D01*
X-7922456Y-1476976D01*
X-7922459Y-1476976D01*
X-7922459Y-1476977D01*
X-8112636Y-1550651D01*
X-8112643Y-1550655D01*
X-8286040Y-1658017D01*
X-8286042Y-1658019D01*
X-8436763Y-1795418D01*
X-8559673Y-1958178D01*
X-8650578Y-2140739D01*
X-8650583Y-2140752D01*
X-8706398Y-2336917D01*
X-8725215Y-2539999D01*
X-8725215Y-2540000D01*
X-9224500Y-2540000D01*
X-9224500Y-1270001D01*
X2823318Y-1270001D01*
X2843955Y-1426760D01*
X2843956Y-1426762D01*
X2895272Y-1550651D01*
X2904464Y-1572841D01*
X3000718Y-1698282D01*
X3126159Y-1794536D01*
X3272238Y-1855044D01*
X3350619Y-1865363D01*
X3428999Y-1875682D01*
X3429000Y-1875682D01*
X3429001Y-1875682D01*
X3481254Y-1868802D01*
X3585762Y-1855044D01*
X3731841Y-1794536D01*
X3857282Y-1698282D01*
X3953536Y-1572841D01*
X4014044Y-1426762D01*
X4034682Y-1270000D01*
X4014044Y-1113238D01*
X3953536Y-967159D01*
X3857282Y-841718D01*
X3731841Y-745464D01*
X3729709Y-744581D01*
X3585762Y-684956D01*
X3585760Y-684955D01*
X3429001Y-664318D01*
X3428999Y-664318D01*
X3272239Y-684955D01*
X3272237Y-684956D01*
X3126160Y-745463D01*
X3000718Y-841718D01*
X2904463Y-967160D01*
X2843956Y-1113237D01*
X2843955Y-1113239D01*
X2823318Y-1269998D01*
X2823318Y-1270001D01*
X-9224500Y-1270001D01*
X-9224500Y0D01*
X-8725215Y0D01*
X-8706398Y-203082D01*
X-8650583Y-399247D01*
X-8650578Y-399260D01*
X-8559673Y-581821D01*
X-8436763Y-744581D01*
X-8286042Y-881980D01*
X-8286040Y-881982D01*
X-8186859Y-943392D01*
X-8112637Y-989348D01*
X-7922456Y-1063024D01*
X-7721976Y-1100500D01*
X-7721974Y-1100500D01*
X-7518026Y-1100500D01*
X-7518024Y-1100500D01*
X-7317544Y-1063024D01*
X-7127363Y-989348D01*
X-6953959Y-881981D01*
X-6803236Y-744579D01*
X-6680327Y-581821D01*
X-6589418Y-399250D01*
X-6533603Y-203083D01*
X-6514785Y0D01*
X9054785Y0D01*
X9073602Y-203082D01*
X9129417Y-399247D01*
X9129422Y-399260D01*
X9220327Y-581821D01*
X9343237Y-744581D01*
X9493958Y-881980D01*
X9493960Y-881982D01*
X9593141Y-943392D01*
X9667363Y-989348D01*
X9857544Y-1063024D01*
X10058024Y-1100500D01*
X10058026Y-1100500D01*
X10261974Y-1100500D01*
X10261976Y-1100500D01*
X10462456Y-1063024D01*
X10652637Y-989348D01*
X10826041Y-881981D01*
X10976764Y-744579D01*
X11099673Y-581821D01*
X11190582Y-399250D01*
X11246397Y-203083D01*
X11265215Y0D01*
X11246397Y203083D01*
X11190582Y399250D01*
X11174794Y430956D01*
X11144665Y491464D01*
X11099673Y581821D01*
X10976764Y744579D01*
X10976762Y744582D01*
X10826041Y881981D01*
X10826039Y881983D01*
X10652642Y989345D01*
X10652635Y989349D01*
X10557546Y1026186D01*
X10462456Y1063024D01*
X10261976Y1100500D01*
X10058024Y1100500D01*
X9857544Y1063024D01*
X9857541Y1063024D01*
X9857541Y1063023D01*
X9667364Y989349D01*
X9667357Y989345D01*
X9493960Y881983D01*
X9493958Y881981D01*
X9343237Y744582D01*
X9220327Y581822D01*
X9129422Y399261D01*
X9129417Y399248D01*
X9073602Y203083D01*
X9054785Y1D01*
X9054785Y0D01*
X-6514785Y0D01*
X-6533603Y203083D01*
X-6589418Y399250D01*
X-6605206Y430956D01*
X-6635335Y491464D01*
X-6680327Y581821D01*
X-6803236Y744579D01*
X-6803238Y744582D01*
X-6953959Y881981D01*
X-6953961Y881983D01*
X-7127358Y989345D01*
X-7127365Y989349D01*
X-7196158Y1015999D01*
X2950318Y1015999D01*
X2970955Y859240D01*
X2970956Y859238D01*
X3031464Y713159D01*
X3127718Y587718D01*
X3253159Y491464D01*
X3399238Y430956D01*
X3477619Y420637D01*
X3555999Y410318D01*
X3556000Y410318D01*
X3556001Y410318D01*
X3608254Y417198D01*
X3712762Y430956D01*
X3858841Y491464D01*
X3984282Y587718D01*
X4080536Y713159D01*
X4141044Y859238D01*
X4161682Y1016000D01*
X4141044Y1172762D01*
X4080536Y1318841D01*
X3984282Y1444282D01*
X3858841Y1540536D01*
X3712762Y1601044D01*
X3712760Y1601045D01*
X3556001Y1621682D01*
X3555999Y1621682D01*
X3399239Y1601045D01*
X3399237Y1601044D01*
X3253160Y1540537D01*
X3127718Y1444282D01*
X3031463Y1318840D01*
X2970956Y1172763D01*
X2970955Y1172761D01*
X2950318Y1016002D01*
X2950318Y1015999D01*
X-7196158Y1015999D01*
X-7222454Y1026186D01*
X-7317544Y1063024D01*
X-7518024Y1100500D01*
X-7721976Y1100500D01*
X-7922456Y1063024D01*
X-7922459Y1063024D01*
X-7922459Y1063023D01*
X-8112636Y989349D01*
X-8112643Y989345D01*
X-8286040Y881983D01*
X-8286042Y881981D01*
X-8436763Y744582D01*
X-8559673Y581822D01*
X-8650578Y399261D01*
X-8650583Y399248D01*
X-8706398Y203083D01*
X-8725215Y1D01*
X-8725215Y0D01*
X-9224500Y0D01*
X-9224500Y1665322D01*
X-8720500Y1665322D01*
X-8705968Y1592265D01*
X-8705967Y1592261D01*
X-8705966Y1592260D01*
X-8650601Y1509399D01*
X-8567740Y1454034D01*
X-8567736Y1454033D01*
X-8494679Y1439501D01*
X-8494676Y1439500D01*
X-8494674Y1439500D01*
X-6745324Y1439500D01*
X-6745323Y1439501D01*
X-6672260Y1454034D01*
X-6589399Y1509399D01*
X-6534034Y1592260D01*
X-6519501Y1665322D01*
X9059500Y1665322D01*
X9074032Y1592265D01*
X9074033Y1592261D01*
X9074034Y1592260D01*
X9129399Y1509399D01*
X9212260Y1454034D01*
X9212264Y1454033D01*
X9285321Y1439501D01*
X9285324Y1439500D01*
X9285326Y1439500D01*
X11034676Y1439500D01*
X11034677Y1439501D01*
X11107740Y1454034D01*
X11190601Y1509399D01*
X11245966Y1592260D01*
X11260500Y1665326D01*
X11260500Y3414674D01*
X11260500Y3414677D01*
X11260499Y3414679D01*
X11245967Y3487736D01*
X11245966Y3487740D01*
X11190601Y3570601D01*
X11107740Y3625966D01*
X11107739Y3625967D01*
X11107735Y3625968D01*
X11034677Y3640500D01*
X11034674Y3640500D01*
X9285326Y3640500D01*
X9285323Y3640500D01*
X9212264Y3625968D01*
X9212260Y3625967D01*
X9129399Y3570601D01*
X9074033Y3487740D01*
X9074032Y3487736D01*
X9059500Y3414679D01*
X9059500Y1665322D01*
X-6519501Y1665322D01*
X-6519500Y1665326D01*
X-6519500Y3047999D01*
X283318Y3047999D01*
X303955Y2891240D01*
X303956Y2891238D01*
X364464Y2745159D01*
X460718Y2619718D01*
X586159Y2523464D01*
X732238Y2462956D01*
X810619Y2452637D01*
X888999Y2442318D01*
X889000Y2442318D01*
X889001Y2442318D01*
X941254Y2449198D01*
X1045762Y2462956D01*
X1191841Y2523464D01*
X1317282Y2619718D01*
X1413536Y2745159D01*
X1474044Y2891238D01*
X1494682Y3048000D01*
X1474044Y3204762D01*
X1413536Y3350841D01*
X1317282Y3476282D01*
X1191841Y3572536D01*
X1045762Y3633044D01*
X1045760Y3633045D01*
X889001Y3653682D01*
X888999Y3653682D01*
X732239Y3633045D01*
X732237Y3633044D01*
X586160Y3572537D01*
X460718Y3476282D01*
X364463Y3350840D01*
X303956Y3204763D01*
X303955Y3204761D01*
X283318Y3048002D01*
X283318Y3047999D01*
X-6519500Y3047999D01*
X-6519500Y3414674D01*
X-6519500Y3414677D01*
X-6519501Y3414679D01*
X-6534033Y3487736D01*
X-6534034Y3487740D01*
X-6589399Y3570601D01*
X-6672260Y3625966D01*
X-6672261Y3625967D01*
X-6672265Y3625968D01*
X-6745323Y3640500D01*
X-6745326Y3640500D01*
X-8494674Y3640500D01*
X-8494677Y3640500D01*
X-8567736Y3625968D01*
X-8567740Y3625967D01*
X-8650601Y3570601D01*
X-8705967Y3487740D01*
X-8705968Y3487736D01*
X-8720500Y3414679D01*
X-8720500Y1665322D01*
X-9224500Y1665322D01*
X-9224500Y5077294D01*
X-9224264Y5082700D01*
X-9222064Y5107844D01*
X-9210717Y5237549D01*
X-9206966Y5258822D01*
X-9168839Y5401116D01*
X-9161447Y5421421D01*
X-9099198Y5554915D01*
X-9088391Y5573634D01*
X-9003900Y5694300D01*
X-8990012Y5710852D01*
X-8885852Y5815012D01*
X-8869300Y5828900D01*
X-8748634Y5913391D01*
X-8729915Y5924198D01*
X-8596421Y5986447D01*
X-8576116Y5993839D01*
X-8433822Y6031966D01*
X-8412549Y6035717D01*
X-8257695Y6049265D01*
X-8252294Y6049500D01*
X-8207405Y6049500D01*
X10747405Y6049500D01*
X10792294Y6049500D01*
X10797694Y6049265D01*
G37*
%TD.AperFunction*%
%TD*%
M02*
